<?xml version="1.0" encoding="UTF-8"?>
<svg id="Layer_2" data-name="Layer 2" xmlns="http://www.w3.org/2000/svg" viewBox="0 0 80.82 103.74">
  <defs>
    <style>
      .cls-1 {
        fill: #baa774;
      }

      .cls-2 {
        fill: #0c383b;
      }
    </style>
  </defs>
  <g id="Layer_1-2" data-name="Layer 1">
    <g>
      <path class="cls-2" d="M80.38,56.95v-4.7h-.54v-9.23h-1.82v-4.7h.96v-4.7h-3.03v-2.82h-4.67v-3.6l-29.13,7.64v1.25h-4.43v-17.47h.53l.31-.42h.22l.31-.42h-1.4c-.21-4.78-3.93-10.66-10.14-12.43-.03-.01-.05-.03-.08-.05l.02.03c-.45-.13-.91-.23-1.38-.31-.02-.02-.04-.05-.07-.07l.03.07c-.46-.08-.92-.13-1.4-.16,0,0,0-.02-.01-.03v-.16h-.22v-1.52l-.47-.81s.03-.07.05-.1h.32l.25-.51h-.47c-.02-.18-.06-.36-.08-.54-.05-.42-.29-.73-.29-.73,0,0-.24.32-.29.73-.02.19-.06.37-.08.54h-.47l.25.51h.32s.03.07.05.1l-.47.81v1.52h-.22v.19c-.41.03-.82.07-1.21.13l.02-.03s-.02.03-.04.04c-.55.09-1.08.2-1.6.35l.02-.04s-.06.04-.1.06c-6.19,1.79-9.91,7.72-10.12,12.42h-1.17l.31.42h.22l.31.42h.3v17.47h-4.43v15.16h-1.8v5.64H.88l.85,1.16h.61l.85,1.16h.36v42.98h41.49v-44.01l.1-.13h.61l.85-1.16h-1.56v-1.36c0-8.8,10-18.3,10-18.3,0,0,10.99,5.25,10.99,14.92v51.14h14.34v-23.18h-.87v-4.53h.87v-4.7h-2.81v-4.7h2.81v-4.7h-.54v-4.53h.54ZM20.04,18.61h.06v17.47h-.06v-17.47ZM24.65,4.85h0s0,0,0,0Z"/>
      <g>
        <path class="cls-1" d="M38.15,18.63H9.35v-.45c0-3.06,1.44-6.47,3.84-9.11,2.77-3.05,6.52-4.73,10.56-4.73,9.27,0,14.4,8.18,14.4,13.84v.45ZM10.25,17.74h27c-.26-5.26-5.04-12.5-13.5-12.5s-13.23,7.14-13.5,12.5Z"/>
        <path class="cls-1" d="M27.08,18.2l-.89-.02c.09-4.09-.48-9.76-1.95-13.21l.82-.35c1.53,3.57,2.12,9.39,2.03,13.58Z"/>
        <path class="cls-1" d="M31.92,18.21c-.17-3.74-2.34-9.39-6.19-12.94l.61-.66c4.2,3.88,6.3,9.75,6.47,13.56l-.89.04Z"/>
        <path class="cls-1" d="M35.71,18.08c-.06-4.02-2.3-9.39-8.44-12.39l.39-.8c6.5,3.18,8.88,8.89,8.94,13.17h-.89Z"/>
        <path class="cls-1" d="M20.6,18.2c-.1-4.19.49-10.01,2.02-13.58l.82.35c-1.48,3.45-2.05,9.12-1.95,13.21l-.89.02Z"/>
        <path class="cls-1" d="M15.76,18.21l-.89-.04c.17-3.81,2.26-9.67,6.47-13.56l.61.66c-3.84,3.55-6.02,9.2-6.18,12.94Z"/>
        <path class="cls-1" d="M11.52,18.52h0c-.25,0-.44-.21-.44-.45.08-5.61,3.35-10.53,8.76-13.17.22-.11.49-.02.6.21.11.22.02.49-.21.6-7.56,3.69-8.23,10.41-8.26,12.39,0,.24-.2.44-.45.44Z"/>
      </g>
      <g>
        <g>
          <path class="cls-2" d="M24.43,4.66v-1.52l-.47-.81c.28-.33.12-.73.07-1.15-.05-.42-.29-.73-.29-.73h0s-.24.32-.29.73c-.05.42-.2.82.07,1.15l-.47.81v1.52h-.22v.64h1.81v-.64h-.22Z"/>
          <path class="cls-1" d="M24.65,5.74h-1.81c-.25,0-.45-.2-.45-.45v-.64c0-.16.09-.31.22-.39v-1.13c0-.08.02-.16.06-.22l.34-.58c-.14-.34-.08-.7-.03-.97.01-.07.03-.15.03-.23.06-.52.35-.91.39-.95.08-.11.21-.17.35-.17h0c.14,0,.27.06.35.17.03.04.32.43.38.95,0,.08.02.16.03.23.05.28.11.63-.03.97l.34.58c.04.07.06.14.06.22v1.13c.13.08.22.22.22.39v.64c0,.25-.2.45-.45.45ZM23.47,4.85h.56c-.03-.06-.04-.12-.04-.19v-1.4l-.24-.42-.24.42v1.4c0,.07-.02.13-.04.19Z"/>
        </g>
        <g>
          <polygon class="cls-2" points="24.34 2.23 23.16 2.23 22.9 1.72 24.59 1.72 24.34 2.23"/>
          <path class="cls-1" d="M24.34,2.68h-1.18c-.17,0-.32-.1-.4-.25l-.25-.51c-.07-.14-.06-.3.02-.43.08-.13.22-.21.38-.21h1.69c.16,0,.3.08.38.21.08.13.09.3.02.43l-.25.51c-.07.15-.23.25-.4.25Z"/>
        </g>
        <rect class="cls-1" x="23.06" y="2.69" width="1.37" height=".89"/>
        <rect class="cls-1" x="22.84" y="4.21" width="1.81" height=".89"/>
      </g>
      <g>
        <g>
          <polygon class="cls-2" points="20.11 18.19 20.11 36.23 25.4 36.23 27.52 36.23 27.52 18.19 20.11 18.19"/>
          <path class="cls-1" d="M27.52,36.68h-7.41c-.25,0-.45-.2-.45-.45v-18.04c0-.25.2-.45.45-.45h7.41c.25,0,.45.2.45.45v18.04c0,.25-.2.45-.45.45ZM20.56,35.79h6.51v-17.15h-6.51v17.15Z"/>
        </g>
        <g>
          <polygon class="cls-2" points="9.79 18.19 9.79 36.23 13.19 36.23 14.55 36.23 14.55 18.19 9.79 18.19"/>
          <path class="cls-1" d="M14.55,36.68h-4.76c-.25,0-.45-.2-.45-.45v-18.04c0-.25.2-.45.45-.45h4.76c.25,0,.45.2.45.45v18.04c0,.25-.2.45-.45.45ZM10.24,35.79h3.86v-17.15h-3.86v17.15Z"/>
        </g>
        <g>
          <polygon class="cls-2" points="32.95 18.19 32.95 36.23 36.35 36.23 37.7 36.23 37.7 18.19 32.95 18.19"/>
          <path class="cls-1" d="M37.7,36.68h-4.76c-.25,0-.45-.2-.45-.45v-18.04c0-.25.2-.45.45-.45h4.76c.25,0,.45.2.45.45v18.04c0,.25-.2.45-.45.45ZM33.39,35.79h3.86v-17.15h-3.86v17.15Z"/>
        </g>
        <g>
          <polygon class="cls-2" points="14.55 18.19 14.55 36.18 18.3 36.22 20.04 36.23 20.04 18.19 14.55 18.19"/>
          <path class="cls-1" d="M20.04,36.68h0l-5.5-.06c-.24,0-.44-.2-.44-.45v-17.99c0-.25.2-.45.45-.45h5.5c.25,0,.45.2.45.45v18.04c0,.12-.05.23-.13.32-.08.08-.2.13-.31.13ZM15,35.74l4.6.05v-17.15h-4.6v17.1Z"/>
        </g>
        <g>
          <polygon class="cls-2" points="27.45 18.19 27.45 36.23 32.95 36.18 32.95 18.19 27.45 18.19"/>
          <path class="cls-1" d="M27.45,36.68c-.12,0-.23-.05-.31-.13-.09-.08-.13-.2-.13-.32v-18.04c0-.25.2-.45.45-.45h5.5c.25,0,.45.2.45.45v17.99c0,.24-.2.44-.44.45l-5.5.06h0ZM27.9,18.63v17.15l4.61-.05v-17.1h-4.61Z"/>
        </g>
      </g>
      <path class="cls-1" d="M23.75,21.75s-1.86,1.29-1.86,2.88v6.15h3.72v-6.15c0-1.59-1.86-2.88-1.86-2.88Z"/>
      <path class="cls-1" d="M12.17,21.75s-1.06,1.29-1.06,2.88v6.15h2.13v-6.15c0-1.59-1.06-2.88-1.06-2.88Z"/>
      <path class="cls-1" d="M35.33,21.75s-1.06,1.29-1.06,2.88v6.15h2.13v-6.15c0-1.59-1.06-2.88-1.06-2.88Z"/>
      <g>
        <g>
          <polygon class="cls-2" points="9.49 18.61 17.55 18.61 17.86 18.19 9.18 18.19 9.49 18.61"/>
          <polygon class="cls-1" points="17.77 19.06 9.27 19.06 8.3 17.74 18.74 17.74 17.77 19.06"/>
        </g>
        <g>
          <polygon class="cls-2" points="8.96 18.19 18.08 18.19 18.39 17.77 8.65 17.77 8.96 18.19"/>
          <polygon class="cls-1" points="18.31 18.63 8.73 18.63 7.77 17.32 19.26 17.32 18.31 18.63"/>
        </g>
      </g>
      <g>
        <g>
          <polygon class="cls-2" points="14.28 18.61 22.34 18.61 22.65 18.19 13.97 18.19 14.28 18.61"/>
          <polygon class="cls-1" points="22.57 19.06 14.06 19.06 13.09 17.74 23.52 17.74 22.57 19.06"/>
        </g>
        <g>
          <polygon class="cls-2" points="13.75 18.19 22.87 18.19 23.18 17.77 13.44 17.77 13.75 18.19"/>
          <polygon class="cls-1" points="23.1 18.63 13.53 18.63 12.56 17.32 24.06 17.32 23.1 18.63"/>
        </g>
      </g>
      <g>
        <g>
          <polygon class="cls-2" points="38.23 18.61 30.18 18.61 29.87 18.19 38.54 18.19 38.23 18.61"/>
          <polygon class="cls-1" points="38.46 19.06 29.95 19.06 29 17.74 39.42 17.74 38.46 19.06"/>
        </g>
        <g>
          <polygon class="cls-2" points="38.77 18.19 29.65 18.19 29.34 17.77 39.08 17.77 38.77 18.19"/>
          <polygon class="cls-1" points="38.99 18.63 29.42 18.63 28.46 17.32 39.96 17.32 38.99 18.63"/>
        </g>
      </g>
      <g>
        <g>
          <polygon class="cls-2" points="33.44 18.61 25.39 18.61 25.08 18.19 33.75 18.19 33.44 18.61"/>
          <polygon class="cls-1" points="33.67 19.06 25.16 19.06 24.2 17.74 34.63 17.74 33.67 19.06"/>
        </g>
        <g>
          <polygon class="cls-2" points="33.97 18.19 24.86 18.19 24.55 17.77 34.28 17.77 33.97 18.19"/>
          <polygon class="cls-1" points="34.2 18.63 24.63 18.63 23.67 17.32 35.17 17.32 34.2 18.63"/>
        </g>
      </g>
      <g>
        <g>
          <polygon class="cls-2" points="19.79 18.61 27.84 18.61 28.15 18.19 19.48 18.19 19.79 18.61"/>
          <polygon class="cls-1" points="28.07 19.06 19.56 19.06 18.6 17.74 29.02 17.74 28.07 19.06"/>
        </g>
        <g>
          <polygon class="cls-2" points="19.25 18.19 28.37 18.19 28.68 17.77 18.94 17.77 19.25 18.19"/>
          <polygon class="cls-1" points="28.6 18.63 19.03 18.63 18.06 17.32 29.56 17.32 28.6 18.63"/>
        </g>
      </g>
      <g>
        <rect class="cls-2" x="5.36" y="36.08" width="36.78" height="21.69"/>
        <path class="cls-1" d="M42.14,58.22H5.36c-.25,0-.45-.2-.45-.45v-21.69c0-.25.2-.45.45-.45h36.78c.25,0,.45.2.45.45v21.69c0,.25-.2.45-.45.45ZM5.81,57.33h35.88v-20.8H5.81v20.8Z"/>
      </g>
      <g>
        <rect class="cls-2" x="3.56" y="57.69" width="40.38" height="44.51"/>
        <path class="cls-1" d="M43.94,102.64H3.56c-.25,0-.45-.2-.45-.45v-44.5c0-.25.2-.45.45-.45h40.37c.25,0,.45.2.45.45v44.5c0,.25-.2.45-.45.45ZM4.01,101.75h39.48v-43.61H4.01v43.61Z"/>
      </g>
      <g>
        <rect class="cls-2" x="3.56" y="51.25" width="3.8" height="6.44"/>
        <path class="cls-1" d="M7.37,58.14h-3.8c-.25,0-.45-.2-.45-.45v-6.44c0-.25.2-.45.45-.45h3.8c.25,0,.45.2.45.45v6.44c0,.25-.2.45-.45.45ZM4.01,57.24h2.91v-5.55h-2.91v5.55Z"/>
      </g>
      <g>
        <path class="cls-1" d="M20.89,45.43s-1.86,1.29-1.86,2.88v6.15h3.72v-6.15c0-1.59-1.86-2.88-1.86-2.88Z"/>
        <path class="cls-1" d="M26.61,45.43s-1.86,1.29-1.86,2.88v6.15h3.72v-6.15c0-1.59-1.86-2.88-1.86-2.88Z"/>
      </g>
      <path class="cls-1" d="M69,102.38h-.89v-51.64c0-9.94-11.02-15.59-12.88-16.47-1.6,1.55-11.61,11.59-11.61,20.56v46.45h-.89v-46.45c0-10.09,11.61-20.96,12.11-21.42.13-.12.32-.15.48-.08.14.06,13.69,6.02,13.69,17.41v51.64Z"/>
      <g>
        <g>
          <path class="cls-1" d="M23.81,82.55c-5.2,0-5.2,2.81-5.2,6.27v13.38h10.39v-13.38c0-3.46,0-6.27-5.2-6.27Z"/>
          <path class="cls-1" d="M29.01,102.64h-10.39c-.25,0-.45-.2-.45-.45v-13.37c0-3.46,0-6.72,5.64-6.72s5.64,3.26,5.64,6.72v13.37c0,.25-.2.45-.45.45ZM19.06,101.75h9.5v-12.93c0-3.51,0-5.83-4.75-5.83s-4.75,2.32-4.75,5.83v12.93Z"/>
        </g>
        <g>
          <path class="cls-2" d="M19.3,102.2v-11.18c0-4.6.32-7.85,4.52-7.85s4.52,3.25,4.52,7.85v11.18h2.03v-11.18c0-3.74,0-10.01-6.55-10.01s-6.55,6.27-6.55,10.01v11.18h2.03Z"/>
          <path class="cls-1" d="M30.36,102.64h-2.03c-.25,0-.45-.2-.45-.45v-11.18c0-5.12-.59-7.4-4.07-7.4s-4.07,2.28-4.07,7.4v11.18c0,.25-.2.45-.45.45h-2.03c-.25,0-.45-.2-.45-.45v-11.18c0-3.65,0-10.46,6.99-10.46s6.99,6.8,6.99,10.46v11.18c0,.25-.2.45-.45.45ZM28.78,101.75h1.14v-10.73c0-3.81,0-9.56-6.1-9.56s-6.1,5.76-6.1,9.56v10.73h1.14v-10.73c0-4.7.37-8.29,4.96-8.29s4.96,3.59,4.96,8.29v10.73Z"/>
        </g>
      </g>
      <g>
        <g>
          <polygon class="cls-2" points="3.2 59.21 44.3 59.21 45.15 58.05 2.35 58.05 3.2 59.21"/>
          <path class="cls-1" d="M44.53,59.66H2.97l-1.51-2.06h44.57l-1.51,2.06ZM3.42,58.77h40.65l.2-.27H3.23l.2.27Z"/>
        </g>
        <g>
          <polygon class="cls-2" points="1.73 58.05 45.77 58.05 46.62 56.89 .88 56.89 1.73 58.05"/>
          <path class="cls-1" d="M45.99,58.5H1.51l-1.51-2.06h47.49l-1.5,2.06ZM1.96,57.6h43.58l.2-.27H1.76l.2.27Z"/>
        </g>
      </g>
      <g>
        <rect class="cls-2" x="70.12" y="84.82" width="5.62" height="18.48"/>
        <path class="cls-1" d="M75.74,103.74h-5.62c-.25,0-.45-.2-.45-.45v-18.48c0-.25.2-.45.45-.45h5.62c.25,0,.45.2.45.45v18.48c0,.25-.2.45-.45.45ZM70.57,102.85h4.73v-17.59h-4.73v17.59Z"/>
      </g>
      <g>
        <rect class="cls-2" x="74.76" y="84.82" width="5.62" height="18.48"/>
        <path class="cls-1" d="M80.38,103.74h-5.62c-.25,0-.45-.2-.45-.45v-18.48c0-.25.2-.45.45-.45h5.62c.25,0,.45.2.45.45v18.48c0,.25-.2.45-.45.45ZM75.2,102.85h4.73v-17.59h-4.73v17.59Z"/>
      </g>
      <g>
        <rect class="cls-2" x="72.93" y="80.11" width="5.62" height="4.7"/>
        <path class="cls-1" d="M78.55,85.26h-5.62c-.25,0-.45-.2-.45-.45v-4.7c0-.25.2-.45.45-.45h5.62c.25,0,.45.2.45.45v4.7c0,.25-.2.45-.45.45ZM73.38,84.37h4.73v-3.81h-4.73v3.81Z"/>
      </g>
      <g>
        <rect class="cls-2" x="69.58" y="80.11" width="3.88" height="4.7"/>
        <path class="cls-1" d="M73.47,85.26h-3.89c-.25,0-.45-.2-.45-.45v-4.7c0-.25.2-.45.45-.45h3.89c.25,0,.45.2.45.45v4.7c0,.25-.2.45-.45.45ZM70.03,84.37h2.99v-3.81h-2.99v3.81Z"/>
      </g>
      <g>
        <rect class="cls-2" x="75.62" y="75.41" width="3.88" height="4.7"/>
        <path class="cls-1" d="M79.51,80.56h-3.88c-.25,0-.45-.2-.45-.45v-4.7c0-.25.2-.45.45-.45h3.88c.25,0,.45.2.45.45v4.7c0,.25-.2.45-.45.45ZM76.07,79.67h2.99v-3.81h-2.99v3.81Z"/>
      </g>
      <g>
        <rect class="cls-2" x="78.43" y="80.11" width="1.94" height="4.7"/>
        <path class="cls-1" d="M80.38,85.26h-1.94c-.25,0-.45-.2-.45-.45v-4.7c0-.25.2-.45.45-.45h1.94c.25,0,.45.2.45.45v4.7c0,.25-.2.45-.45.45ZM78.88,84.37h1.05v-3.81h-1.05v3.81Z"/>
      </g>
      <g>
        <rect class="cls-2" x="70.12" y="75.41" width="5.62" height="4.7"/>
        <path class="cls-1" d="M75.74,80.56h-5.62c-.25,0-.45-.2-.45-.45v-4.7c0-.25.2-.45.45-.45h5.62c.25,0,.45.2.45.45v4.7c0,.25-.2.45-.45.45ZM70.57,79.67h4.73v-3.81h-4.73v3.81Z"/>
      </g>
      <g>
        <rect class="cls-2" x="74.76" y="70.88" width="5.62" height="4.7" transform="translate(155.13 146.47) rotate(180)"/>
        <path class="cls-1" d="M80.38,76.03h-5.62c-.25,0-.45-.2-.45-.45v-4.7c0-.25.2-.45.45-.45h5.62c.25,0,.45.2.45.45v4.7c0,.25-.2.45-.45.45ZM75.2,75.14h4.73v-3.81h-4.73v3.81Z"/>
      </g>
      <g>
        <rect class="cls-2" x="70.12" y="70.88" width="5.62" height="4.7" transform="translate(145.87 146.47) rotate(180)"/>
        <path class="cls-1" d="M75.74,76.03h-5.62c-.25,0-.45-.2-.45-.45v-4.7c0-.25.2-.45.45-.45h5.62c.25,0,.45.2.45.45v4.7c0,.25-.2.45-.45.45ZM70.57,75.14h4.73v-3.81h-4.73v3.81Z"/>
      </g>
      <g>
        <rect class="cls-2" x="71.95" y="66.18" width="5.62" height="4.7" transform="translate(149.51 137.07) rotate(180)"/>
        <path class="cls-1" d="M77.57,71.33h-5.62c-.25,0-.45-.2-.45-.45v-4.7c0-.25.2-.45.45-.45h5.62c.25,0,.45.2.45.45v4.7c0,.25-.2.45-.45.45ZM72.39,70.44h4.73v-3.81h-4.73v3.81Z"/>
      </g>
      <g>
        <rect class="cls-2" x="70.99" y="61.48" width="3.88" height="4.7" transform="translate(145.87 127.66) rotate(180)"/>
        <path class="cls-1" d="M74.88,66.63h-3.89c-.25,0-.45-.2-.45-.45v-4.7c0-.25.2-.45.45-.45h3.89c.25,0,.45.2.45.45v4.7c0,.25-.2.45-.45.45ZM71.44,65.74h2.99v-3.81h-2.99v3.81Z"/>
      </g>
      <g>
        <rect class="cls-2" x="70.12" y="66.18" width="1.94" height="4.7" transform="translate(142.19 137.07) rotate(180)"/>
        <path class="cls-1" d="M72.07,71.33h-1.94c-.25,0-.45-.2-.45-.45v-4.7c0-.25.2-.45.45-.45h1.94c.25,0,.45.2.45.45v4.7c0,.25-.2.45-.45.45ZM70.57,70.44h1.05v-3.81h-1.05v3.81Z"/>
      </g>
      <g>
        <rect class="cls-2" x="74.76" y="61.48" width="5.62" height="4.7" transform="translate(155.13 127.66) rotate(180)"/>
        <path class="cls-1" d="M80.38,66.63h-5.62c-.25,0-.45-.2-.45-.45v-4.7c0-.25.2-.45.45-.45h5.62c.25,0,.45.2.45.45v4.7c0,.25-.2.45-.45.45ZM75.2,65.74h4.73v-3.81h-4.73v3.81Z"/>
      </g>
      <g>
        <rect class="cls-2" x="74.21" y="56.95" width="5.62" height="4.7" transform="translate(154.05 118.61) rotate(180)"/>
        <path class="cls-1" d="M79.83,62.1h-5.62c-.25,0-.45-.2-.45-.45v-4.7c0-.25.2-.45.45-.45h5.62c.25,0,.45.2.45.45v4.7c0,.25-.2.45-.45.45ZM74.66,61.21h4.73v-3.81h-4.73v3.81Z"/>
      </g>
      <g>
        <rect class="cls-2" x="69.58" y="56.95" width="5.62" height="4.7" transform="translate(144.78 118.61) rotate(180)"/>
        <path class="cls-1" d="M75.2,62.1h-5.62c-.25,0-.45-.2-.45-.45v-4.7c0-.25.2-.45.45-.45h5.62c.25,0,.45.2.45.45v4.7c0,.25-.2.45-.45.45ZM70.03,61.21h4.73v-3.81h-4.73v3.81Z"/>
      </g>
      <g>
        <rect class="cls-2" x="71.41" y="52.25" width="5.62" height="4.7" transform="translate(148.43 109.21) rotate(180)"/>
        <path class="cls-1" d="M77.02,57.4h-5.62c-.25,0-.45-.2-.45-.45v-4.7c0-.25.2-.45.45-.45h5.62c.25,0,.45.2.45.45v4.7c0,.25-.2.45-.45.45ZM71.85,56.51h4.73v-3.81h-4.73v3.81Z"/>
      </g>
      <g>
        <rect class="cls-2" x="76.49" y="52.25" width="3.88" height="4.7" transform="translate(156.87 109.21) rotate(180)"/>
        <path class="cls-1" d="M80.38,57.4h-3.89c-.25,0-.45-.2-.45-.45v-4.7c0-.25.2-.45.45-.45h3.89c.25,0,.45.2.45.45v4.7c0,.25-.2.45-.45.45ZM76.94,56.51h2.99v-3.81h-2.99v3.81Z"/>
      </g>
      <g>
        <rect class="cls-2" x="70.45" y="47.55" width="3.88" height="4.7" transform="translate(144.78 99.8) rotate(180)"/>
        <path class="cls-1" d="M74.33,52.7h-3.89c-.25,0-.45-.2-.45-.45v-4.7c0-.25.2-.45.45-.45h3.89c.25,0,.45.2.45.45v4.7c0,.25-.2.45-.45.45ZM70.89,51.81h2.99v-3.81h-2.99v3.81Z"/>
      </g>
      <g>
        <rect class="cls-2" x="68.61" y="38.32" width="3.88" height="4.7" transform="translate(141.1 81.35) rotate(180)"/>
        <path class="cls-1" d="M72.49,43.47h-3.88c-.25,0-.45-.2-.45-.45v-4.7c0-.25.2-.45.45-.45h3.88c.25,0,.45.2.45.45v4.7c0,.25-.2.45-.45.45ZM69.06,42.58h2.99v-3.81h-2.99v3.81Z"/>
      </g>
      <g>
        <rect class="cls-2" x="69.58" y="52.25" width="1.94" height="4.7" transform="translate(141.1 109.21) rotate(180)"/>
        <path class="cls-1" d="M71.52,57.4h-1.94c-.25,0-.45-.2-.45-.45v-4.7c0-.25.2-.45.45-.45h1.94c.25,0,.45.2.45.45v4.7c0,.25-.2.45-.45.45ZM70.03,56.51h1.05v-3.81h-1.05v3.81Z"/>
      </g>
      <g>
        <rect class="cls-2" x="74.21" y="47.55" width="5.62" height="4.7" transform="translate(154.05 99.8) rotate(180)"/>
        <path class="cls-1" d="M79.83,52.7h-5.62c-.25,0-.45-.2-.45-.45v-4.7c0-.25.2-.45.45-.45h5.62c.25,0,.45.2.45.45v4.7c0,.25-.2.45-.45.45ZM74.66,51.81h4.73v-3.81h-4.73v3.81Z"/>
      </g>
      <g>
        <rect class="cls-2" x="69.58" y="43.02" width="5.62" height="4.7"/>
        <path class="cls-1" d="M75.2,48.17h-5.62c-.25,0-.45-.2-.45-.45v-4.7c0-.25.2-.45.45-.45h5.62c.25,0,.45.2.45.45v4.7c0,.25-.2.45-.45.45ZM70.03,47.28h4.73v-3.81h-4.73v3.81Z"/>
      </g>
      <g>
        <rect class="cls-2" x="74.21" y="43.02" width="5.62" height="4.7"/>
        <path class="cls-1" d="M79.83,48.17h-5.62c-.25,0-.45-.2-.45-.45v-4.7c0-.25.2-.45.45-.45h5.62c.25,0,.45.2.45.45v4.7c0,.25-.2.45-.45.45ZM74.66,47.28h4.73v-3.81h-4.73v3.81Z"/>
      </g>
      <g>
        <rect class="cls-2" x="72.39" y="38.32" width="5.62" height="4.7"/>
        <path class="cls-1" d="M78.01,43.47h-5.62c-.25,0-.45-.2-.45-.45v-4.7c0-.25.2-.45.45-.45h5.62c.25,0,.45.2.45.45v4.7c0,.25-.2.45-.45.45ZM72.84,42.58h4.73v-3.81h-4.73v3.81Z"/>
      </g>
      <g>
        <rect class="cls-2" x="75.08" y="33.62" width="3.88" height="4.7"/>
        <path class="cls-1" d="M78.97,38.77h-3.89c-.25,0-.45-.2-.45-.45v-4.7c0-.25.2-.45.45-.45h3.89c.25,0,.45.2.45.45v4.7c0,.25-.2.45-.45.45ZM75.53,37.88h2.99v-3.81h-2.99v3.81Z"/>
      </g>
      <g>
        <rect class="cls-2" x="69.58" y="33.62" width="5.62" height="4.7"/>
        <path class="cls-1" d="M75.2,38.77h-5.62c-.25,0-.45-.2-.45-.45v-4.7c0-.25.2-.45.45-.45h5.62c.25,0,.45.2.45.45v4.7c0,.25-.2.45-.45.45ZM70.03,37.88h4.73v-3.81h-4.73v3.81Z"/>
      </g>
      <g>
        <rect class="cls-2" x="72.91" y="30.8" width="3.03" height="3.39"/>
        <path class="cls-1" d="M75.94,34.63h-3.03c-.25,0-.45-.2-.45-.45v-3.39c0-.25.2-.45.45-.45h3.03c.25,0,.45.2.45.45v3.39c0,.25-.2.45-.45.45ZM73.35,33.74h2.14v-2.5h-2.14v2.5Z"/>
      </g>
      <g>
        <rect class="cls-2" x="68.61" y="30.8" width="4.39" height="3.39"/>
        <path class="cls-1" d="M73,34.63h-4.39c-.25,0-.45-.2-.45-.45v-3.39c0-.25.2-.45.45-.45h4.39c.25,0,.45.2.45.45v3.39c0,.25-.2.45-.45.45ZM69.06,33.74h3.5v-2.5h-3.5v2.5Z"/>
      </g>
    </g>
  </g>
</svg>