<?xml version="1.0" encoding="UTF-8"?>
<svg id="Layer_2" data-name="Layer 2" xmlns="http://www.w3.org/2000/svg" viewBox="0 0 149.84 348.49">
  <defs>
    <style>
      .cls-1 {
        fill: #baa774;
      }

      .cls-2 {
        fill: #0c383b;
      }
    </style>
  </defs>
  <g id="Layer_1-2" data-name="Layer 1">
    <g>
      <path class="cls-2" d="M70.51,1.93s5.78-5.2,6.49,1.47c3.53,33.06,9.13,187.76,14.76,216.69,6.76,34.77,58.08,51.19,58.08,51.19l-3.51,12.58s-52.64,15.37-54.57,64.63h-36.22c-2.09-3.82,6.22-58.95-55.54-69.56v-13.39s41.16-17.43,51.78-34.82C62.41,213.33,70.51,1.93,70.51,1.93Z"/>
      <path class="cls-1" d="M73.63,5.61c.03-.66,1-.65,1.03,0,1.03,24.5,3.24,90.05,3.61,94.99,2.41,32.02,5.19,92.82,9.04,120.84,4.62,33.68,58.2,53.65,58.2,53.65l-1.3,4.14c-25.32,3.65-49.1,14.67-59.18,66.15-1.98,0-22.12.04-22.12.04-2.59-27.7-15.37-70.04-56.71-71.02v-4.48c.32,2.83,46.83-18.65,53.79-38.18,5.24-14.7,11.8-180.86,13.64-226.12Z"/>
    </g>
  </g>
</svg>