<?xml version="1.0" encoding="UTF-8"?>
<svg id="Layer_2" data-name="Layer 2" xmlns="http://www.w3.org/2000/svg" viewBox="0 0 96.19 221.47">
  <defs>
    <style>
      .cls-1 {
        fill: #0c383b;
        stroke: #baa774;
        stroke-miterlimit: 10;
        stroke-width: 1.42px;
      }

      .cls-2 {
        fill: #baa774;
      }
    </style>
  </defs>
  <g id="Layer_1-2" data-name="Layer 1">
    <g>
      <path class="cls-1" d="M45.23,1.93s3.65-3.29,4.1.93c2.23,20.87,5.77,118.56,9.32,136.83,4.27,21.96,36.68,32.32,36.68,32.32l-2.22,7.94s-33.24,9.7-34.46,40.81h-22.87c-1.32-2.41,3.93-37.22-35.07-43.92v-8.46s25.99-11.01,32.7-21.99C40.11,135.41,45.23,1.93,45.23,1.93Z"/>
      <path class="cls-2" d="M47.2,4.25c.02-.42.63-.41.65,0,.65,15.47,2.05,56.86,2.28,59.98,1.52,20.22,3.28,58.61,5.71,76.3,2.92,21.27,36.75,33.87,36.75,33.87l-.82,2.61c-15.99,2.31-31.01,9.26-37.37,41.77-1.25,0-13.97.02-13.97.02-1.64-17.49-9.71-44.22-35.81-44.84v-2.83c.2,1.79,29.57-11.78,33.96-24.11,3.31-9.28,7.45-114.2,8.61-142.78Z"/>
    </g>
  </g>
</svg>