<?xml version="1.0" encoding="UTF-8"?>
<svg id="Layer_2" data-name="Layer 2" xmlns="http://www.w3.org/2000/svg" viewBox="0 0 132.07 307.16">
  <defs>
    <style>
      .cls-1 {
        fill: #baa774;
      }

      .cls-2 {
        fill: #0c383b;
      }
    </style>
  </defs>
  <g id="Layer_1-2" data-name="Layer 1">
    <g>
      <g>
        <g>
          <path class="cls-1" d="M93.01,35.07v-12.7h6.12V2.48C76.99.3,54.84.3,32.69,2.48v19.88h6.12v19.88h-9.71L.85,65.31v241h101.87V42.25h-9.71v-7.18ZM92.23,29.55h-1.76v-7.18h1.76v7.18ZM39.6,22.37h1.76v7.18h-1.76v-7.18ZM39.6,35.07h1.76v7.18h-1.76v-7.18ZM90.47,42.25v-7.18h1.76v7.18h-1.76Z"/>
          <path class="cls-1" d="M102.72,307.16H.85c-.47,0-.85-.38-.85-.85V65.31c0-.26.11-.5.31-.66l28.26-23.06c.15-.12.34-.19.54-.19h8.86v-18.18h-5.27c-.47,0-.85-.38-.85-.85V2.48c0-.44.33-.8.77-.85C54.71-.55,77.12-.55,99.22,1.64c.43.04.77.41.77.85v19.88c0,.47-.38.85-.85.85h-5.27v18.18h8.86c.47,0,.85.38.85.85v264.07c0,.47-.38.85-.85.85ZM1.7,305.46h100.17V43.1h-8.86c-.14,0-.28-.03-.39-.1-.12.06-.25.1-.39.1h-1.76c-.47,0-.85-.38-.85-.85v-7.18c0-.47.38-.85.85-.85h1.69v-3.82h-1.69c-.47,0-.85-.38-.85-.85v-7.18c0-.47.38-.85.85-.85h1.76c.14,0,.28.03.39.1.12-.06.25-.1.39-.1h5.27V3.25c-21.49-2.07-43.26-2.07-64.74,0v18.26h5.27c.14,0,.28.03.39.1.12-.06.25-.1.39-.1h1.76c.47,0,.85.38.85.85v7.18c0,.47-.38.85-.85.85h-1.69v3.82h1.69c.47,0,.85.38.85.85v7.18c0,.47-.38.85-.85.85h-1.76c-.14,0-.28-.03-.39-.1-.12.06-.25.1-.39.1h-9.41L1.7,65.71v239.75ZM91.32,41.4h.06l-.06-5.48v5.48ZM40.45,41.4h.06l-.06-5.48v5.48ZM91.32,28.7h.06l-.06-5.48v5.48ZM40.45,28.7h.06l-.06-5.48v5.48Z"/>
        </g>
        <g>
          <polygon class="cls-1" points="102.96 42.25 102.96 306.31 131.22 306.31 131.22 65.31 102.96 42.25"/>
          <path class="cls-1" d="M131.22,307.16h-28.26c-.47,0-.85-.38-.85-.85V42.25c0-.33.19-.63.49-.77.3-.14.65-.1.9.11l28.26,23.06c.2.16.31.4.31.66v241c0,.47-.38.85-.85.85ZM103.81,305.46h26.56V65.71l-26.56-21.67v261.43Z"/>
        </g>
      </g>
      <g>
        <g>
          <path class="cls-2" d="M99.14,22.37H32.69V2.48C54.84.3,76.99.3,99.14,2.48v19.88Z"/>
          <path class="cls-1" d="M99.14,22.79H32.69c-.23,0-.42-.19-.42-.42V2.48c0-.22.17-.4.38-.42C54.72-.12,77.11-.12,99.18,2.06c.22.02.38.2.38.42v19.88c0,.23-.19.42-.42.42ZM33.12,21.94h65.59V2.87C76.95.74,54.88.74,33.12,2.87v19.07Z"/>
        </g>
        <g>
          <polyline class="cls-1" points="90.47 42.25 41.36 42.25 41.36 22.37 90.47 22.37"/>
          <path class="cls-1" d="M90.47,42.67h-49.11c-.23,0-.42-.19-.42-.42v-19.88c0-.23.19-.42.42-.42h49.11v.85h-48.68v19.03h48.68v.85Z"/>
        </g>
        <g>
          <rect class="cls-1" x="56.03" y="8.74" width="5.47" height="7.37"/>
          <rect class="cls-1" x="49.08" y="8.74" width="5.09" height="7.37"/>
          <polygon class="cls-1" points="62.88 8.74 62.88 16.11 63.06 16.11 68.77 16.11 68.95 16.11 68.95 8.74 62.88 8.74"/>
          <rect class="cls-1" x="43.86" y="8.74" width="3.93" height="7.37"/>
          <rect class="cls-1" x="32.69" y="8.74" width="2.18" height="7.37"/>
          <rect class="cls-1" x="39.7" y="8.74" width="3.33" height="7.37"/>
          <rect class="cls-1" x="35.81" y="8.74" width="2.18" height="7.37"/>
          <rect class="cls-1" x="88.8" y="8.74" width="3.33" height="7.37"/>
          <rect class="cls-1" x="93.84" y="8.74" width="2.18" height="7.37"/>
          <rect class="cls-1" x="96.96" y="8.74" width="2.18" height="7.37"/>
          <rect class="cls-1" x="77.66" y="8.74" width="5.09" height="7.37"/>
          <rect class="cls-1" x="84.05" y="8.74" width="3.93" height="7.37"/>
          <rect class="cls-1" x="70.32" y="8.74" width="5.47" height="7.37"/>
        </g>
        <g>
          <g>
            <rect class="cls-2" x="38.82" y="22.37" width=".79" height="19.88"/>
            <path class="cls-1" d="M39.6,42.46h-.79c-.12,0-.21-.09-.21-.21v-19.88c0-.12.1-.21.21-.21h.79c.12,0,.21.1.21.21v19.88c0,.12-.1.21-.21.21ZM39.03,42.03h.36v-19.46h-.36v19.46Z"/>
          </g>
          <g>
            <rect class="cls-2" x="49.5" y="22.37" width=".79" height="19.88"/>
            <path class="cls-1" d="M50.29,42.46h-.79c-.12,0-.21-.09-.21-.21v-19.88c0-.12.1-.21.21-.21h.79c.12,0,.21.1.21.21v19.88c0,.12-.1.21-.21.21ZM49.71,42.03h.36v-19.46h-.36v19.46Z"/>
          </g>
          <g>
            <rect class="cls-2" x="60.18" y="22.37" width=".79" height="19.88"/>
            <path class="cls-1" d="M60.97,42.46h-.79c-.12,0-.21-.09-.21-.21v-19.88c0-.12.1-.21.21-.21h.79c.12,0,.21.1.21.21v19.88c0,.12-.1.21-.21.21ZM60.39,42.03h.36v-19.46h-.36v19.46Z"/>
          </g>
          <g>
            <rect class="cls-2" x="70.86" y="22.37" width=".79" height="19.88"/>
            <path class="cls-1" d="M71.65,42.46h-.79c-.12,0-.21-.09-.21-.21v-19.88c0-.12.1-.21.21-.21h.79c.12,0,.21.1.21.21v19.88c0,.12-.1.21-.21.21ZM71.07,42.03h.36v-19.46h-.36v19.46Z"/>
          </g>
          <g>
            <rect class="cls-2" x="81.54" y="22.37" width=".79" height="19.88"/>
            <path class="cls-1" d="M82.33,42.46h-.79c-.12,0-.21-.09-.21-.21v-19.88c0-.12.1-.21.21-.21h.79c.12,0,.21.1.21.21v19.88c0,.12-.1.21-.21.21ZM81.76,42.03h.36v-19.46h-.36v19.46Z"/>
          </g>
          <g>
            <rect class="cls-2" x="92.23" y="22.37" width=".79" height="19.88"/>
            <path class="cls-1" d="M93.01,42.46h-.79c-.12,0-.21-.09-.21-.21v-19.88c0-.12.1-.21.21-.21h.79c.12,0,.21.1.21.21v19.88c0,.12-.1.21-.21.21ZM92.44,42.03h.36v-19.46h-.36v19.46Z"/>
          </g>
        </g>
        <g>
          <rect class="cls-2" x="38.82" y="29.55" width="54.2" height="5.52"/>
          <path class="cls-1" d="M93.01,35.49h-54.2c-.23,0-.42-.19-.42-.42v-5.52c0-.23.19-.42.42-.42h54.2c.23,0,.42.19.42.42v5.52c0,.23-.19.42-.42.42ZM39.24,34.64h53.35v-4.67h-53.35v4.67Z"/>
        </g>
        <g>
          <rect class="cls-2" x="29.11" y="42.25" width="73.61" height="264.07"/>
          <path class="cls-1" d="M102.72,306.74H29.11c-.23,0-.42-.19-.42-.42V42.25c0-.23.19-.42.42-.42h73.61c.23,0,.42.19.42.42v264.07c0,.23-.19.42-.42.42ZM29.53,305.89h72.76V42.67H29.53v263.22Z"/>
        </g>
        <g>
          <rect class="cls-1" x="31.14" y="46.22" width="7.56" height="7.56"/>
          <rect class="cls-1" x="41.47" y="46.22" width="7.56" height="7.56"/>
          <rect class="cls-1" x="51.8" y="46.22" width="7.56" height="7.56"/>
          <rect class="cls-1" x="62.13" y="46.22" width="7.56" height="7.56"/>
          <rect class="cls-1" x="72.47" y="46.22" width="7.56" height="7.56"/>
          <rect class="cls-1" x="82.8" y="46.22" width="7.56" height="7.56"/>
          <rect class="cls-1" x="93.13" y="46.22" width="7.56" height="7.56"/>
        </g>
        <g>
          <rect class="cls-1" x="31.14" y="69.28" width="7.56" height="7.56"/>
          <rect class="cls-1" x="41.47" y="69.28" width="7.56" height="7.56"/>
          <rect class="cls-1" x="51.8" y="69.28" width="7.56" height="7.56"/>
          <rect class="cls-1" x="62.13" y="69.28" width="7.56" height="7.56"/>
          <rect class="cls-1" x="72.47" y="69.28" width="7.56" height="7.56"/>
          <rect class="cls-1" x="82.8" y="69.28" width="7.56" height="7.56"/>
          <rect class="cls-1" x="93.13" y="69.28" width="7.56" height="7.56"/>
        </g>
        <g>
          <rect class="cls-1" x="36.99" y="57.75" width="7.39" height="7.56"/>
          <rect class="cls-1" x="47.09" y="57.75" width="7.39" height="7.56"/>
          <rect class="cls-1" x="57.2" y="57.75" width="7.39" height="7.56"/>
          <rect class="cls-1" x="67.3" y="57.75" width="7.39" height="7.56"/>
          <rect class="cls-1" x="77.4" y="57.75" width="7.39" height="7.56"/>
          <rect class="cls-1" x="87.51" y="57.75" width="7.39" height="7.56"/>
          <rect class="cls-1" x="97.61" y="57.75" width="3.08" height="7.56"/>
          <rect class="cls-1" x="31.14" y="57.75" width="3.08" height="7.56"/>
        </g>
        <g>
          <rect class="cls-1" x="36.99" y="80.81" width="7.39" height="7.56"/>
          <rect class="cls-1" x="47.09" y="80.81" width="7.39" height="7.56"/>
          <rect class="cls-1" x="57.2" y="80.81" width="7.39" height="7.56"/>
          <rect class="cls-1" x="67.3" y="80.81" width="7.39" height="7.56"/>
          <rect class="cls-1" x="77.4" y="80.81" width="7.39" height="7.56"/>
          <rect class="cls-1" x="87.51" y="80.81" width="7.39" height="7.56"/>
          <rect class="cls-1" x="97.61" y="80.81" width="3.08" height="7.56"/>
          <rect class="cls-1" x="31.14" y="80.81" width="3.08" height="7.56"/>
        </g>
        <g>
          <rect class="cls-1" x="31.14" y="92.34" width="7.56" height="7.56"/>
          <rect class="cls-1" x="41.47" y="92.34" width="7.56" height="7.56"/>
          <rect class="cls-1" x="51.8" y="92.34" width="7.56" height="7.56"/>
          <rect class="cls-1" x="62.13" y="92.34" width="7.56" height="7.56"/>
          <rect class="cls-1" x="72.47" y="92.34" width="7.56" height="7.56"/>
          <rect class="cls-1" x="82.8" y="92.34" width="7.56" height="7.56"/>
          <rect class="cls-1" x="93.13" y="92.34" width="7.56" height="7.56"/>
        </g>
        <g>
          <rect class="cls-1" x="36.99" y="103.87" width="7.39" height="7.56"/>
          <rect class="cls-1" x="47.09" y="103.87" width="7.39" height="7.56"/>
          <rect class="cls-1" x="57.2" y="103.87" width="7.39" height="7.56"/>
          <rect class="cls-1" x="67.3" y="103.87" width="7.39" height="7.56"/>
          <rect class="cls-1" x="77.4" y="103.87" width="7.39" height="7.56"/>
          <rect class="cls-1" x="87.51" y="103.87" width="7.39" height="7.56"/>
          <rect class="cls-1" x="97.61" y="103.87" width="3.08" height="7.56"/>
          <rect class="cls-1" x="31.14" y="103.87" width="3.08" height="7.56"/>
        </g>
        <g>
          <rect class="cls-1" x="31.14" y="115.4" width="7.56" height="7.56"/>
          <rect class="cls-1" x="41.47" y="115.4" width="7.56" height="7.56"/>
          <rect class="cls-1" x="51.8" y="115.4" width="7.56" height="7.56"/>
          <rect class="cls-1" x="62.13" y="115.4" width="7.56" height="7.56"/>
          <rect class="cls-1" x="72.47" y="115.4" width="7.56" height="7.56"/>
          <rect class="cls-1" x="82.8" y="115.4" width="7.56" height="7.56"/>
          <rect class="cls-1" x="93.13" y="115.4" width="7.56" height="7.56"/>
        </g>
        <g>
          <rect class="cls-1" x="36.99" y="126.93" width="7.39" height="7.56"/>
          <rect class="cls-1" x="47.09" y="126.93" width="7.39" height="7.56"/>
          <rect class="cls-1" x="57.2" y="126.93" width="7.39" height="7.56"/>
          <rect class="cls-1" x="67.3" y="126.93" width="7.39" height="7.56"/>
          <rect class="cls-1" x="77.4" y="126.93" width="7.39" height="7.56"/>
          <rect class="cls-1" x="87.51" y="126.93" width="7.39" height="7.56"/>
          <rect class="cls-1" x="97.61" y="126.93" width="3.08" height="7.56"/>
          <rect class="cls-1" x="31.14" y="126.93" width="3.08" height="7.56"/>
        </g>
        <g>
          <rect class="cls-1" x="31.14" y="138.46" width="7.56" height="7.56"/>
          <rect class="cls-1" x="41.47" y="138.46" width="7.56" height="7.56"/>
          <rect class="cls-1" x="51.8" y="138.46" width="7.56" height="7.56"/>
          <rect class="cls-1" x="62.13" y="138.46" width="7.56" height="7.56"/>
          <rect class="cls-1" x="72.47" y="138.46" width="7.56" height="7.56"/>
          <rect class="cls-1" x="82.8" y="138.46" width="7.56" height="7.56"/>
          <rect class="cls-1" x="93.13" y="138.46" width="7.56" height="7.56"/>
        </g>
        <g>
          <rect class="cls-1" x="36.99" y="149.99" width="7.39" height="7.56"/>
          <rect class="cls-1" x="47.09" y="149.99" width="7.39" height="7.56"/>
          <rect class="cls-1" x="57.2" y="149.99" width="7.39" height="7.56"/>
          <rect class="cls-1" x="67.3" y="149.99" width="7.39" height="7.56"/>
          <rect class="cls-1" x="77.4" y="149.99" width="7.39" height="7.56"/>
          <rect class="cls-1" x="87.51" y="149.99" width="7.39" height="7.56"/>
          <rect class="cls-1" x="97.61" y="149.99" width="3.08" height="7.56"/>
          <rect class="cls-1" x="31.14" y="149.99" width="3.08" height="7.56"/>
        </g>
        <g>
          <rect class="cls-1" x="31.14" y="161.89" width="7.56" height="7.56"/>
          <rect class="cls-1" x="41.47" y="161.89" width="7.56" height="7.56"/>
          <rect class="cls-1" x="51.8" y="161.89" width="7.56" height="7.56"/>
          <rect class="cls-1" x="62.13" y="161.89" width="7.56" height="7.56"/>
          <rect class="cls-1" x="72.47" y="161.89" width="7.56" height="7.56"/>
          <rect class="cls-1" x="82.8" y="161.89" width="7.56" height="7.56"/>
          <rect class="cls-1" x="93.13" y="161.89" width="7.56" height="7.56"/>
        </g>
        <g>
          <rect class="cls-1" x="36.99" y="173.42" width="7.39" height="7.56"/>
          <rect class="cls-1" x="47.09" y="173.42" width="7.39" height="7.56"/>
          <rect class="cls-1" x="57.2" y="173.42" width="7.39" height="7.56"/>
          <rect class="cls-1" x="67.3" y="173.42" width="7.39" height="7.56"/>
          <rect class="cls-1" x="77.4" y="173.42" width="7.39" height="7.56"/>
          <rect class="cls-1" x="87.51" y="173.42" width="7.39" height="7.56"/>
          <rect class="cls-1" x="97.61" y="173.42" width="3.08" height="7.56"/>
          <rect class="cls-1" x="31.14" y="173.42" width="3.08" height="7.56"/>
        </g>
        <g>
          <rect class="cls-1" x="31.14" y="184.95" width="7.56" height="7.56"/>
          <rect class="cls-1" x="41.47" y="184.95" width="7.56" height="7.56"/>
          <rect class="cls-1" x="51.8" y="184.95" width="7.56" height="7.56"/>
          <rect class="cls-1" x="62.13" y="184.95" width="7.56" height="7.56"/>
          <rect class="cls-1" x="72.47" y="184.95" width="7.56" height="7.56"/>
          <rect class="cls-1" x="82.8" y="184.95" width="7.56" height="7.56"/>
          <rect class="cls-1" x="93.13" y="184.95" width="7.56" height="7.56"/>
        </g>
        <g>
          <rect class="cls-1" x="36.99" y="196.48" width="7.39" height="7.56"/>
          <rect class="cls-1" x="47.09" y="196.48" width="7.39" height="7.56"/>
          <rect class="cls-1" x="57.2" y="196.48" width="7.39" height="7.56"/>
          <rect class="cls-1" x="67.3" y="196.48" width="7.39" height="7.56"/>
          <rect class="cls-1" x="77.4" y="196.48" width="7.39" height="7.56"/>
          <rect class="cls-1" x="87.51" y="196.48" width="7.39" height="7.56"/>
          <rect class="cls-1" x="97.61" y="196.48" width="3.08" height="7.56"/>
          <rect class="cls-1" x="31.14" y="196.48" width="3.08" height="7.56"/>
        </g>
        <g>
          <rect class="cls-1" x="31.14" y="208.01" width="7.56" height="7.56"/>
          <rect class="cls-1" x="41.47" y="208.01" width="7.56" height="7.56"/>
          <rect class="cls-1" x="51.8" y="208.01" width="7.56" height="7.56"/>
          <rect class="cls-1" x="62.13" y="208.01" width="7.56" height="7.56"/>
          <rect class="cls-1" x="72.47" y="208.01" width="7.56" height="7.56"/>
          <rect class="cls-1" x="82.8" y="208.01" width="7.56" height="7.56"/>
          <rect class="cls-1" x="93.13" y="208.01" width="7.56" height="7.56"/>
        </g>
        <g>
          <rect class="cls-1" x="36.99" y="219.54" width="7.39" height="7.56"/>
          <rect class="cls-1" x="47.09" y="219.54" width="7.39" height="7.56"/>
          <rect class="cls-1" x="57.2" y="219.54" width="7.39" height="7.56"/>
          <rect class="cls-1" x="67.3" y="219.54" width="7.39" height="7.56"/>
          <rect class="cls-1" x="77.4" y="219.54" width="7.39" height="7.56"/>
          <rect class="cls-1" x="87.51" y="219.54" width="7.39" height="7.56"/>
          <rect class="cls-1" x="97.61" y="219.54" width="3.08" height="7.56"/>
          <rect class="cls-1" x="31.14" y="219.54" width="3.08" height="7.56"/>
        </g>
        <g>
          <g>
            <polygon class="cls-2" points="29.11 306.31 .85 306.31 .85 65.31 29.11 42.25 29.11 306.31"/>
            <path class="cls-1" d="M29.11,306.74H.85c-.23,0-.42-.19-.42-.42V65.31c0-.13.06-.25.16-.33l28.26-23.06c.13-.1.3-.13.45-.05.15.07.24.22.24.38v264.07c0,.23-.19.42-.42.42ZM1.27,305.89h27.41V43.14L1.27,65.51v240.38Z"/>
          </g>
          <g>
            <polygon class="cls-1" points="4.01 72.63 1.51 74.52 1.51 68.13 4.01 66.14 4.01 72.63"/>
            <polygon class="cls-1" points="7.57 69.96 4.95 71.93 4.95 65.39 7.57 63.31 7.57 69.96"/>
            <polygon class="cls-1" points="11.3 67.16 8.56 69.22 8.56 62.53 11.3 60.35 11.3 67.16"/>
            <polygon class="cls-1" points="15.22 64.22 12.33 66.38 12.33 59.53 15.22 57.24 15.22 64.22"/>
            <polygon class="cls-1" points="19.32 61.13 16.3 63.4 16.3 56.39 19.32 53.98 19.32 61.13"/>
            <polygon class="cls-1" points="23.64 57.89 20.46 60.28 20.46 53.08 23.64 50.56 23.64 57.89"/>
            <polygon class="cls-1" points="28.19 54.47 24.84 56.99 24.84 49.61 28.19 46.95 28.19 54.47"/>
          </g>
          <g>
            <polygon class="cls-1" points="4.01 92.45 1.51 94 1.51 87.61 4.01 85.95 4.01 92.45"/>
            <polygon class="cls-1" points="7.57 90.23 4.95 91.86 4.95 85.33 7.57 83.58 7.57 90.23"/>
            <polygon class="cls-1" points="11.3 87.91 8.56 89.62 8.56 82.93 11.3 81.11 11.3 87.91"/>
            <polygon class="cls-1" points="15.22 85.48 12.33 87.27 12.33 80.42 15.22 78.51 15.22 85.48"/>
            <polygon class="cls-1" points="19.32 82.92 16.3 84.81 16.3 77.79 19.32 75.78 19.32 82.92"/>
            <polygon class="cls-1" points="23.64 80.24 20.46 82.22 20.46 75.02 23.64 72.91 23.64 80.24"/>
            <polygon class="cls-1" points="28.19 77.41 24.84 79.49 24.84 72.11 28.19 69.89 28.19 77.41"/>
          </g>
          <g>
            <polygon class="cls-1" points="5.95 81.21 3.44 82.93 3.44 76.46 5.95 74.63 5.95 81.21"/>
            <polygon class="cls-1" points="9.52 78.76 6.89 80.56 6.89 73.94 9.52 72.03 9.52 78.76"/>
            <polygon class="cls-1" points="13.26 76.19 10.51 78.08 10.51 71.31 13.26 69.3 13.26 76.19"/>
            <polygon class="cls-1" points="17.18 73.5 14.29 75.48 14.29 68.55 17.18 66.45 17.18 73.5"/>
            <polygon class="cls-1" points="21.29 70.68 18.26 72.76 18.26 65.66 21.29 63.45 21.29 70.68"/>
            <polygon class="cls-1" points="25.61 67.71 22.43 69.9 22.43 62.62 25.61 60.3 25.61 67.71"/>
            <polygon class="cls-1" points="28.19 65.94 26.81 66.89 26.81 59.43 28.19 58.42 28.19 65.94"/>
            <polygon class="cls-1" points="2.52 83.57 1.51 84.26 1.51 77.87 2.52 77.13 2.52 83.57"/>
          </g>
          <g>
            <polygon class="cls-1" points="5.95 101.27 3.44 102.67 3.44 96.2 5.95 94.69 5.95 101.27"/>
            <polygon class="cls-1" points="9.52 99.28 6.89 100.75 6.89 94.13 9.52 92.55 9.52 99.28"/>
            <polygon class="cls-1" points="13.26 97.2 10.51 98.73 10.51 91.96 13.26 90.31 13.26 97.2"/>
            <polygon class="cls-1" points="17.18 95.02 14.29 96.63 14.29 89.69 17.18 87.96 17.18 95.02"/>
            <polygon class="cls-1" points="21.29 92.73 18.26 94.41 18.26 87.31 21.29 85.5 21.29 92.73"/>
            <polygon class="cls-1" points="25.61 90.32 22.43 92.09 22.43 84.81 25.61 82.91 25.61 90.32"/>
            <polygon class="cls-1" points="28.19 88.88 26.81 89.65 26.81 82.19 28.19 81.36 28.19 88.88"/>
            <polygon class="cls-1" points="2.52 103.18 1.51 103.75 1.51 97.36 2.52 96.75 2.52 103.18"/>
          </g>
          <g>
            <polygon class="cls-1" points="4.01 112.26 1.51 113.49 1.51 107.1 4.01 105.76 4.01 112.26"/>
            <polygon class="cls-1" points="7.57 110.51 4.95 111.8 4.95 105.26 7.57 103.86 7.57 110.51"/>
            <polygon class="cls-1" points="11.3 108.67 8.56 110.02 8.56 103.33 11.3 101.86 11.3 108.67"/>
            <polygon class="cls-1" points="15.22 106.74 12.33 108.16 12.33 101.31 15.22 99.77 15.22 106.74"/>
            <polygon class="cls-1" points="19.32 104.72 16.3 106.21 16.3 99.19 19.32 97.57 19.32 104.72"/>
            <polygon class="cls-1" points="23.64 102.59 20.46 104.16 20.46 96.96 23.64 95.26 23.64 102.59"/>
            <polygon class="cls-1" points="28.19 100.35 24.84 102 24.84 94.62 28.19 92.83 28.19 100.35"/>
          </g>
          <g>
            <polygon class="cls-1" points="5.95 121.34 3.44 122.41 3.44 115.94 5.95 114.76 5.95 121.34"/>
            <polygon class="cls-1" points="9.52 119.81 6.89 120.93 6.89 114.32 9.52 113.08 9.52 119.81"/>
            <polygon class="cls-1" points="13.26 118.21 10.51 119.39 10.51 112.62 13.26 111.32 13.26 118.21"/>
            <polygon class="cls-1" points="17.18 116.53 14.29 117.77 14.29 110.84 17.18 109.48 17.18 116.53"/>
            <polygon class="cls-1" points="21.29 114.77 18.26 116.07 18.26 108.97 21.29 107.55 21.29 114.77"/>
            <polygon class="cls-1" points="25.61 112.93 22.43 114.29 22.43 107.01 25.61 105.51 25.61 112.93"/>
            <polygon class="cls-1" points="28.19 111.82 26.81 112.41 26.81 104.95 28.19 104.3 28.19 111.82"/>
            <polygon class="cls-1" points="2.52 122.8 1.51 123.24 1.51 116.85 2.52 116.37 2.52 122.8"/>
          </g>
          <g>
            <polygon class="cls-1" points="4.01 132.07 1.51 132.98 1.51 126.59 4.01 125.58 4.01 132.07"/>
            <polygon class="cls-1" points="7.57 130.78 4.95 131.73 4.95 125.2 7.57 124.13 7.57 130.78"/>
            <polygon class="cls-1" points="11.3 129.42 8.56 130.42 8.56 123.73 11.3 122.62 11.3 129.42"/>
            <polygon class="cls-1" points="15.22 128 12.33 129.05 12.33 122.2 15.22 121.03 15.22 128"/>
            <polygon class="cls-1" points="19.32 126.51 16.3 127.61 16.3 120.59 19.32 119.37 19.32 126.51"/>
            <polygon class="cls-1" points="23.64 124.94 20.46 126.1 20.46 118.91 23.64 117.62 23.64 124.94"/>
            <polygon class="cls-1" points="28.19 123.29 24.84 124.51 24.84 117.13 28.19 115.77 28.19 123.29"/>
          </g>
          <g>
            <polygon class="cls-1" points="5.95 141.4 3.44 142.15 3.44 135.68 5.95 134.82 5.95 141.4"/>
            <polygon class="cls-1" points="9.52 140.33 6.89 141.12 6.89 134.5 9.52 133.61 9.52 140.33"/>
            <polygon class="cls-1" points="13.26 139.22 10.51 140.04 10.51 133.27 13.26 132.33 13.26 139.22"/>
            <polygon class="cls-1" points="17.18 138.05 14.29 138.91 14.29 131.98 17.18 131 17.18 138.05"/>
            <polygon class="cls-1" points="21.29 136.82 18.26 137.73 18.26 130.63 21.29 129.59 21.29 136.82"/>
            <polygon class="cls-1" points="25.61 135.53 22.43 136.48 22.43 129.21 25.61 128.12 25.61 135.53"/>
            <polygon class="cls-1" points="28.19 134.76 26.81 135.18 26.81 127.71 28.19 127.24 28.19 134.76"/>
            <polygon class="cls-1" points="2.52 142.42 1.51 142.73 1.51 136.34 2.52 135.99 2.52 142.42"/>
          </g>
          <g>
            <polygon class="cls-1" points="4.01 151.89 1.51 152.47 1.51 146.08 4.01 145.39 4.01 151.89"/>
            <polygon class="cls-1" points="7.57 151.05 4.95 151.67 4.95 145.13 7.57 144.41 7.57 151.05"/>
            <polygon class="cls-1" points="11.3 150.18 8.56 150.82 8.56 144.13 11.3 143.38 11.3 150.18"/>
            <polygon class="cls-1" points="15.22 149.27 12.33 149.94 12.33 143.09 15.22 142.3 15.22 149.27"/>
            <polygon class="cls-1" points="19.32 148.31 16.3 149.01 16.3 142 19.32 141.16 19.32 148.31"/>
            <polygon class="cls-1" points="23.64 147.3 20.46 148.04 20.46 140.85 23.64 139.97 23.64 147.3"/>
            <polygon class="cls-1" points="28.19 146.24 24.84 147.02 24.84 139.64 28.19 138.71 28.19 146.24"/>
          </g>
          <g>
            <polygon class="cls-1" points="5.95 161.46 3.44 161.89 3.44 155.42 5.95 154.89 5.95 161.46"/>
            <polygon class="cls-1" points="9.52 160.86 6.89 161.3 6.89 154.69 9.52 154.13 9.52 160.86"/>
            <polygon class="cls-1" points="13.26 160.23 10.51 160.69 10.51 153.92 13.26 153.34 13.26 160.23"/>
            <polygon class="cls-1" points="17.18 159.57 14.29 160.05 14.29 153.12 17.18 152.51 17.18 159.57"/>
            <polygon class="cls-1" points="21.29 158.87 18.26 159.38 18.26 152.28 21.29 151.64 21.29 158.87"/>
            <polygon class="cls-1" points="25.61 158.14 22.43 158.68 22.43 151.4 25.61 150.73 25.61 158.14"/>
            <polygon class="cls-1" points="28.19 157.71 26.81 157.94 26.81 150.48 28.19 150.18 28.19 157.71"/>
            <polygon class="cls-1" points="2.52 162.04 1.51 162.21 1.51 155.83 2.52 155.61 2.52 162.04"/>
          </g>
        </g>
        <g>
          <g>
            <polygon class="cls-2" points="102.96 306.31 131.22 306.31 131.22 65.31 102.96 42.25 102.96 306.31"/>
            <path class="cls-1" d="M131.22,306.74h-28.26c-.23,0-.42-.19-.42-.42V42.25c0-.16.09-.31.24-.38.15-.07.33-.05.45.05l28.26,23.06c.1.08.16.2.16.33v241c0,.23-.19.42-.42.42ZM103.38,305.89h27.41V65.51l-27.41-22.37v262.75Z"/>
          </g>
          <g>
            <polygon class="cls-1" points="128.06 72.63 130.56 74.52 130.56 68.13 128.06 66.14 128.06 72.63"/>
            <polygon class="cls-1" points="124.49 69.96 127.12 71.93 127.12 65.39 124.49 63.31 124.49 69.96"/>
            <polygon class="cls-1" points="120.76 67.16 123.51 69.22 123.51 62.53 120.76 60.35 120.76 67.16"/>
            <polygon class="cls-1" points="116.85 64.22 119.73 66.38 119.73 59.53 116.85 57.24 116.85 64.22"/>
            <polygon class="cls-1" points="112.74 61.13 115.77 63.4 115.77 56.39 112.74 53.98 112.74 61.13"/>
            <polygon class="cls-1" points="108.43 57.89 111.61 60.28 111.61 53.08 108.43 50.56 108.43 57.89"/>
            <polygon class="cls-1" points="103.88 54.47 107.23 56.99 107.23 49.61 103.88 46.95 103.88 54.47"/>
          </g>
          <g>
            <polygon class="cls-1" points="128.06 92.45 130.56 94 130.56 87.61 128.06 85.95 128.06 92.45"/>
            <polygon class="cls-1" points="124.49 90.23 127.12 91.86 127.12 85.33 124.49 83.58 124.49 90.23"/>
            <polygon class="cls-1" points="120.76 87.91 123.51 89.62 123.51 82.93 120.76 81.11 120.76 87.91"/>
            <polygon class="cls-1" points="116.85 85.48 119.73 87.27 119.73 80.42 116.85 78.51 116.85 85.48"/>
            <polygon class="cls-1" points="112.74 82.92 115.77 84.81 115.77 77.79 112.74 75.78 112.74 82.92"/>
            <polygon class="cls-1" points="108.43 80.24 111.61 82.22 111.61 75.02 108.43 72.91 108.43 80.24"/>
            <polygon class="cls-1" points="103.88 77.41 107.23 79.49 107.23 72.11 103.88 69.89 103.88 77.41"/>
          </g>
          <g>
            <polygon class="cls-1" points="126.12 81.21 128.63 82.93 128.63 76.46 126.12 74.63 126.12 81.21"/>
            <polygon class="cls-1" points="122.55 78.76 125.18 80.56 125.18 73.94 122.55 72.03 122.55 78.76"/>
            <polygon class="cls-1" points="118.81 76.19 121.56 78.08 121.56 71.31 118.81 69.3 118.81 76.19"/>
            <polygon class="cls-1" points="114.89 73.5 117.78 75.48 117.78 68.55 114.89 66.45 114.89 73.5"/>
            <polygon class="cls-1" points="110.78 70.68 113.81 72.76 113.81 65.66 110.78 63.45 110.78 70.68"/>
            <polygon class="cls-1" points="106.46 67.71 109.64 69.9 109.64 62.62 106.46 60.3 106.46 67.71"/>
            <polygon class="cls-1" points="103.88 65.94 105.26 66.89 105.26 59.43 103.88 58.42 103.88 65.94"/>
            <polygon class="cls-1" points="129.55 83.57 130.56 84.26 130.56 77.87 129.55 77.13 129.55 83.57"/>
          </g>
          <g>
            <polygon class="cls-1" points="126.12 101.27 128.63 102.67 128.63 96.2 126.12 94.69 126.12 101.27"/>
            <polygon class="cls-1" points="122.55 99.28 125.18 100.75 125.18 94.13 122.55 92.55 122.55 99.28"/>
            <polygon class="cls-1" points="118.81 97.2 121.56 98.73 121.56 91.96 118.81 90.31 118.81 97.2"/>
            <polygon class="cls-1" points="114.89 95.02 117.78 96.63 117.78 89.69 114.89 87.96 114.89 95.02"/>
            <polygon class="cls-1" points="110.78 92.73 113.81 94.41 113.81 87.31 110.78 85.5 110.78 92.73"/>
            <polygon class="cls-1" points="106.46 90.32 109.64 92.09 109.64 84.81 106.46 82.91 106.46 90.32"/>
            <polygon class="cls-1" points="103.88 88.88 105.26 89.65 105.26 82.19 103.88 81.36 103.88 88.88"/>
            <polygon class="cls-1" points="129.55 103.18 130.56 103.75 130.56 97.36 129.55 96.75 129.55 103.18"/>
          </g>
          <g>
            <polygon class="cls-1" points="128.06 112.26 130.56 113.49 130.56 107.1 128.06 105.76 128.06 112.26"/>
            <polygon class="cls-1" points="124.49 110.51 127.12 111.8 127.12 105.26 124.49 103.86 124.49 110.51"/>
            <polygon class="cls-1" points="120.76 108.67 123.51 110.02 123.51 103.33 120.76 101.86 120.76 108.67"/>
            <polygon class="cls-1" points="116.85 106.74 119.73 108.16 119.73 101.31 116.85 99.77 116.85 106.74"/>
            <polygon class="cls-1" points="112.74 104.72 115.77 106.21 115.77 99.19 112.74 97.57 112.74 104.72"/>
            <polygon class="cls-1" points="108.43 102.59 111.61 104.16 111.61 96.96 108.43 95.26 108.43 102.59"/>
            <polygon class="cls-1" points="103.88 100.35 107.23 102 107.23 94.62 103.88 92.83 103.88 100.35"/>
          </g>
          <g>
            <polygon class="cls-1" points="126.12 121.34 128.63 122.41 128.63 115.94 126.12 114.76 126.12 121.34"/>
            <polygon class="cls-1" points="122.55 119.81 125.18 120.93 125.18 114.32 122.55 113.08 122.55 119.81"/>
            <polygon class="cls-1" points="118.81 118.21 121.56 119.39 121.56 112.62 118.81 111.32 118.81 118.21"/>
            <polygon class="cls-1" points="114.89 116.53 117.78 117.77 117.78 110.84 114.89 109.48 114.89 116.53"/>
            <polygon class="cls-1" points="110.78 114.77 113.81 116.07 113.81 108.97 110.78 107.55 110.78 114.77"/>
            <polygon class="cls-1" points="106.46 112.93 109.64 114.29 109.64 107.01 106.46 105.51 106.46 112.93"/>
            <polygon class="cls-1" points="103.88 111.82 105.26 112.41 105.26 104.95 103.88 104.3 103.88 111.82"/>
            <polygon class="cls-1" points="129.55 122.8 130.56 123.24 130.56 116.85 129.55 116.37 129.55 122.8"/>
          </g>
          <g>
            <polygon class="cls-1" points="128.06 132.07 130.56 132.98 130.56 126.59 128.06 125.58 128.06 132.07"/>
            <polygon class="cls-1" points="124.49 130.78 127.12 131.73 127.12 125.2 124.49 124.13 124.49 130.78"/>
            <polygon class="cls-1" points="120.76 129.42 123.51 130.42 123.51 123.73 120.76 122.62 120.76 129.42"/>
            <polygon class="cls-1" points="116.85 128 119.73 129.05 119.73 122.2 116.85 121.03 116.85 128"/>
            <polygon class="cls-1" points="112.74 126.51 115.77 127.61 115.77 120.59 112.74 119.37 112.74 126.51"/>
            <polygon class="cls-1" points="108.43 124.94 111.61 126.1 111.61 118.91 108.43 117.62 108.43 124.94"/>
            <polygon class="cls-1" points="103.88 123.29 107.23 124.51 107.23 117.13 103.88 115.77 103.88 123.29"/>
          </g>
          <g>
            <polygon class="cls-1" points="126.12 141.4 128.63 142.15 128.63 135.68 126.12 134.82 126.12 141.4"/>
            <polygon class="cls-1" points="122.55 140.33 125.18 141.12 125.18 134.5 122.55 133.61 122.55 140.33"/>
            <polygon class="cls-1" points="118.81 139.22 121.56 140.04 121.56 133.27 118.81 132.33 118.81 139.22"/>
            <polygon class="cls-1" points="114.89 138.05 117.78 138.91 117.78 131.98 114.89 131 114.89 138.05"/>
            <polygon class="cls-1" points="110.78 136.82 113.81 137.73 113.81 130.63 110.78 129.59 110.78 136.82"/>
            <polygon class="cls-1" points="106.46 135.53 109.64 136.48 109.64 129.21 106.46 128.12 106.46 135.53"/>
            <polygon class="cls-1" points="103.88 134.76 105.26 135.18 105.26 127.71 103.88 127.24 103.88 134.76"/>
            <polygon class="cls-1" points="129.55 142.42 130.56 142.73 130.56 136.34 129.55 135.99 129.55 142.42"/>
          </g>
          <g>
            <polygon class="cls-1" points="128.06 151.89 130.56 152.47 130.56 146.08 128.06 145.39 128.06 151.89"/>
            <polygon class="cls-1" points="124.49 151.05 127.12 151.67 127.12 145.13 124.49 144.41 124.49 151.05"/>
            <polygon class="cls-1" points="120.76 150.18 123.51 150.82 123.51 144.13 120.76 143.38 120.76 150.18"/>
            <polygon class="cls-1" points="116.85 149.27 119.73 149.94 119.73 143.09 116.85 142.3 116.85 149.27"/>
            <polygon class="cls-1" points="112.74 148.31 115.77 149.01 115.77 142 112.74 141.16 112.74 148.31"/>
            <polygon class="cls-1" points="108.43 147.3 111.61 148.04 111.61 140.85 108.43 139.97 108.43 147.3"/>
            <polygon class="cls-1" points="103.88 146.24 107.23 147.02 107.23 139.64 103.88 138.71 103.88 146.24"/>
          </g>
          <g>
            <polygon class="cls-1" points="126.12 161.46 128.63 161.89 128.63 155.42 126.12 154.89 126.12 161.46"/>
            <polygon class="cls-1" points="122.55 160.86 125.18 161.3 125.18 154.69 122.55 154.13 122.55 160.86"/>
            <polygon class="cls-1" points="118.81 160.23 121.56 160.69 121.56 153.92 118.81 153.34 118.81 160.23"/>
            <polygon class="cls-1" points="114.89 159.57 117.78 160.05 117.78 153.12 114.89 152.51 114.89 159.57"/>
            <polygon class="cls-1" points="110.78 158.87 113.81 159.38 113.81 152.28 110.78 151.64 110.78 158.87"/>
            <polygon class="cls-1" points="106.46 158.14 109.64 158.68 109.64 151.4 106.46 150.73 106.46 158.14"/>
            <polygon class="cls-1" points="103.88 157.71 105.26 157.94 105.26 150.48 103.88 150.18 103.88 157.71"/>
            <polygon class="cls-1" points="129.55 162.04 130.56 162.21 130.56 155.83 129.55 155.61 129.55 162.04"/>
          </g>
        </g>
      </g>
    </g>
  </g>
</svg>