<?xml version="1.0" encoding="UTF-8"?>
<svg id="Layer_2" data-name="Layer 2" xmlns="http://www.w3.org/2000/svg" viewBox="0 0 208.64 248.79">
  <defs>
    <style>
      .cls-1 {
        fill: #baa774;
      }

      .cls-2 {
        fill: #0c383b;
      }
    </style>
  </defs>
  <g id="Layer_1-2" data-name="Layer 1">
    <g>
      <g>
        <polygon class="cls-2" points="179.82 119.12 107.14 119.12 107.14 .47 179.82 2.95 179.82 119.12"/>
        <path class="cls-1" d="M180.27,119.58h-73.59V0l73.59,2.51v117.06ZM107.6,118.66h71.76V3.4L107.6.95v117.71Z"/>
      </g>
      <g>
        <rect class="cls-1" x="107.14" y="100.09" width="15.69" height="22.56"/>
        <path class="cls-1" d="M123.28,123.11h-16.6v-23.48h16.6v23.48ZM107.6,122.2h14.77v-21.65h-14.77v21.65Z"/>
      </g>
      <g>
        <polygon class="cls-2" points="207.72 127.04 122.93 122.65 122.93 100.09 207.72 106.67 207.72 127.04"/>
        <path class="cls-1" d="M208.18,127.52l-.48-.03-85.23-4.4v-23.49l.49.04,85.21,6.61v21.27ZM123.38,122.22l83.88,4.33v-19.47l-83.88-6.5v21.63Z"/>
      </g>
      <g>
        <polygon class="cls-1" points="149.85 248.34 130.72 248.34 130.72 122.65 149.85 120.46 149.85 248.34"/>
        <path class="cls-1" d="M150.31,248.79h-20.05v-126.55l20.05-2.3v128.84ZM131.18,247.88h18.22v-126.9l-18.22,2.08v124.82Z"/>
      </g>
      <g>
        <polygon class="cls-2" points="131.1 143.02 107.14 143.02 107.14 120.46 131.1 122.65 131.1 143.02"/>
        <path class="cls-1" d="M131.56,143.48h-24.88v-23.52l24.88,2.27v21.25ZM107.6,142.57h23.05v-19.5l-23.05-2.11v21.6Z"/>
      </g>
      <g>
        <polygon class="cls-2" points="138.71 248.34 107.14 248.34 107.14 140.83 138.71 143.02 138.71 248.34"/>
        <path class="cls-1" d="M139.17,248.79h-32.49v-108.45l32.49,2.25v106.2ZM107.6,247.88h30.66v-104.43l-30.66-2.13v106.56Z"/>
      </g>
      <g>
        <polygon class="cls-2" points="208.18 248.34 149.85 248.34 149.85 120.46 208.18 127.04 208.18 248.34"/>
        <path class="cls-1" d="M208.64,248.79h-59.24V119.95l.51.05,58.73,6.62v122.17ZM150.31,247.88h57.41v-120.43l-57.41-6.47v126.91Z"/>
      </g>
      <g>
        <g>
          <polygon class="cls-1" points="158.77 140.97 157.15 140.83 157.15 130.96 158.77 131.12 158.77 140.97"/>
          <polygon class="cls-1" points="162.67 141.3 161.07 141.16 161.07 131.36 162.67 131.52 162.67 141.3"/>
          <polygon class="cls-1" points="162.82 165.1 157.15 164.86 157.15 152.67 162.82 153.03 162.82 165.1"/>
          <polygon class="cls-1" points="162.82 188.89 157.15 188.89 157.15 176.7 162.82 176.82 162.82 188.89"/>
        </g>
        <g>
          <polygon class="cls-1" points="170.39 141.94 168.83 141.81 168.83 132.14 170.39 132.3 170.39 141.94"/>
          <polygon class="cls-1" points="174.13 142.26 172.59 142.13 172.59 132.52 174.13 132.67 174.13 142.26"/>
          <polygon class="cls-1" points="174.27 165.58 168.83 165.35 168.83 153.41 174.27 153.75 174.27 165.58"/>
          <polygon class="cls-1" points="174.27 188.89 168.83 188.89 168.83 176.95 174.27 177.07 174.27 188.89"/>
        </g>
        <g>
          <polygon class="cls-1" points="181.53 142.88 180.04 142.75 180.04 133.27 181.53 133.42 181.53 142.88"/>
          <polygon class="cls-1" points="185.13 143.18 183.65 143.05 183.65 133.64 185.13 133.79 185.13 143.18"/>
          <polygon class="cls-1" points="185.27 166.04 180.04 165.82 180.04 154.12 185.27 154.45 185.27 166.04"/>
          <polygon class="cls-1" points="185.27 188.89 180.04 188.89 180.04 177.19 185.27 177.3 185.27 188.89"/>
        </g>
        <g>
          <polygon class="cls-1" points="192.25 143.78 190.81 143.65 190.81 134.36 192.25 134.51 192.25 143.78"/>
          <polygon class="cls-1" points="195.71 144.06 194.29 143.95 194.29 134.71 195.71 134.85 195.71 144.06"/>
          <polygon class="cls-1" points="195.84 166.49 190.81 166.27 190.81 154.8 195.84 155.12 195.84 166.49"/>
          <polygon class="cls-1" points="195.84 188.89 190.81 188.89 190.81 177.42 195.84 177.53 195.84 188.89"/>
        </g>
        <g>
          <polygon class="cls-1" points="202.55 144.64 201.17 144.52 201.17 135.41 202.55 135.55 202.55 144.64"/>
          <polygon class="cls-1" points="205.88 144.92 204.51 144.8 204.51 135.74 205.88 135.88 205.88 144.92"/>
          <polygon class="cls-1" points="206.01 166.91 201.17 166.71 201.17 155.45 206.01 155.76 206.01 166.91"/>
          <polygon class="cls-1" points="206.01 188.89 201.17 188.89 201.17 177.64 206.01 177.74 206.01 188.89"/>
          <polygon class="cls-1" points="162.82 212.18 157.15 212.18 157.15 199.99 162.82 200.11 162.82 212.18"/>
          <polygon class="cls-1" points="174.27 212.18 168.83 212.18 168.83 200.24 174.27 200.35 174.27 212.18"/>
          <polygon class="cls-1" points="185.27 212.18 180.04 212.18 180.04 200.47 185.27 200.59 185.27 212.18"/>
          <polygon class="cls-1" points="195.84 212.18 190.81 212.18 190.81 200.7 195.84 200.81 195.84 212.18"/>
          <polygon class="cls-1" points="206.01 212.18 201.17 212.18 201.17 200.92 206.01 201.03 206.01 212.18"/>
        </g>
      </g>
      <g>
        <polygon class="cls-1" points="126.48 130.12 124.97 130 123.91 130.93 123.91 137.3 127.54 137.59 127.54 131.22 126.48 130.12"/>
        <polygon class="cls-1" points="119.79 129.58 118.28 129.46 117.23 130.38 117.23 136.75 120.85 137.05 120.85 130.68 119.79 129.58"/>
        <polygon class="cls-1" points="113.11 129.04 111.6 128.91 110.54 129.84 110.54 136.21 114.16 136.5 114.16 130.14 113.11 129.04"/>
      </g>
      <g>
        <polygon class="cls-1" points="133.14 154.62 130.57 154.37 128.74 155.9 128.74 166.66 134.92 167.05 134.92 156.48 133.14 154.62"/>
        <polygon class="cls-1" points="121.43 153.46 118.67 153.18 116.71 154.76 116.71 165.9 123.33 166.32 123.33 155.39 121.43 153.46"/>
        <polygon class="cls-1" points="133.14 175.9 130.57 175.81 128.74 177.46 128.74 188.22 134.92 188.22 134.92 177.65 133.14 175.9"/>
        <polygon class="cls-1" points="121.43 175.48 118.67 175.37 116.71 177.08 116.71 188.22 123.33 188.22 123.33 177.29 121.43 175.48"/>
        <polygon class="cls-1" points="108.86 152.21 107.39 152.06 107.39 165.32 110.91 165.54 110.91 154.21 108.86 152.21"/>
        <polygon class="cls-1" points="108.86 175.02 107.39 174.96 107.39 188.22 110.91 188.22 110.91 176.89 108.86 175.02"/>
      </g>
      <g>
        <polygon class="cls-2" points="34.62 119.12 107.3 119.12 107.3 .47 34.62 2.95 34.62 119.12"/>
        <path class="cls-1" d="M107.75,119.58H34.16V2.51l.44-.02L107.75,0v119.58ZM35.08,118.66h71.76V.95L35.08,3.4v115.27Z"/>
      </g>
      <g>
        <rect class="cls-2" x="91.61" y="100.09" width="15.69" height="22.56"/>
        <path class="cls-1" d="M107.75,123.11h-16.6v-23.48h16.6v23.48ZM92.07,122.2h14.77v-21.65h-14.77v21.65Z"/>
      </g>
      <g>
        <polygon class="cls-2" points="7.99 127.04 91.51 122.65 91.51 100.09 7.99 106.67 7.99 127.04"/>
        <path class="cls-1" d="M7.53,127.52v-21.27l84.44-6.65v23.49l-84.44,4.43ZM8.44,107.09v19.47l82.61-4.33v-21.63l-82.61,6.5Z"/>
      </g>
      <g>
        <polygon class="cls-2" points="64.58 248.34 83.72 248.34 83.72 122.65 64.58 120.46 64.58 248.34"/>
        <path class="cls-1" d="M84.18,248.79h-20.05V119.95l20.05,2.3v126.55ZM65.04,247.88h18.22v-124.82l-18.22-2.08v126.9Z"/>
      </g>
      <g>
        <polygon class="cls-1" points="83.33 143.02 107.3 143.02 107.3 120.46 83.33 122.65 83.33 143.02"/>
        <path class="cls-1" d="M107.75,143.48h-24.88v-21.25l24.88-2.27v23.52ZM83.79,142.57h23.05v-21.6l-23.05,2.11v19.5Z"/>
      </g>
      <g>
        <polygon class="cls-2" points="75.72 248.34 107.3 248.34 107.3 140.83 75.72 143.02 75.72 248.34"/>
        <path class="cls-1" d="M107.75,248.79h-32.49v-106.2l.43-.03,32.06-2.23v108.45ZM76.18,247.88h30.66v-106.56l-30.66,2.13v104.43Z"/>
      </g>
      <g>
        <polygon class="cls-2" points=".46 248.34 64.58 248.34 64.58 120.46 .46 127.04 .46 248.34"/>
        <path class="cls-1" d="M65.04,248.79H0v-122.17l.41-.04,64.63-6.62v128.84ZM.91,247.88h63.21v-126.91L.91,127.45v120.43Z"/>
      </g>
      <g>
        <g>
          <polygon class="cls-1" points="55.66 140.97 57.28 140.83 57.28 130.96 55.66 131.12 55.66 140.97"/>
          <polygon class="cls-1" points="51.76 141.3 53.36 141.16 53.36 131.36 51.76 131.52 51.76 141.3"/>
          <polygon class="cls-1" points="51.61 165.1 57.28 164.86 57.28 152.67 51.61 153.03 51.61 165.1"/>
          <polygon class="cls-1" points="51.61 188.89 57.28 188.89 57.28 176.7 51.61 176.82 51.61 188.89"/>
        </g>
        <g>
          <polygon class="cls-1" points="44.05 141.94 45.61 141.81 45.61 132.14 44.05 132.3 44.05 141.94"/>
          <polygon class="cls-1" points="40.31 142.26 41.84 142.13 41.84 132.52 40.31 132.67 40.31 142.26"/>
          <polygon class="cls-1" points="40.16 165.58 45.61 165.35 45.61 153.41 40.16 153.75 40.16 165.58"/>
          <polygon class="cls-1" points="40.16 188.89 45.61 188.89 45.61 176.95 40.16 177.07 40.16 188.89"/>
        </g>
        <g>
          <polygon class="cls-1" points="32.9 142.88 34.4 142.75 34.4 133.27 32.9 133.42 32.9 142.88"/>
          <polygon class="cls-1" points="29.31 143.18 30.78 143.05 30.78 133.64 29.31 133.79 29.31 143.18"/>
          <polygon class="cls-1" points="29.17 166.04 34.4 165.82 34.4 154.12 29.17 154.45 29.17 166.04"/>
          <polygon class="cls-1" points="29.17 188.89 34.4 188.89 34.4 177.19 29.17 177.3 29.17 188.89"/>
        </g>
        <g>
          <polygon class="cls-1" points="22.19 143.78 23.62 143.65 23.62 134.36 22.19 134.51 22.19 143.78"/>
          <polygon class="cls-1" points="18.73 144.06 20.15 143.95 20.15 134.71 18.73 134.85 18.73 144.06"/>
          <polygon class="cls-1" points="18.6 166.49 23.62 166.27 23.62 154.8 18.6 155.12 18.6 166.49"/>
          <polygon class="cls-1" points="18.6 188.89 23.62 188.89 23.62 177.42 18.6 177.53 18.6 188.89"/>
        </g>
        <g>
          <polygon class="cls-1" points="11.88 144.64 13.27 144.52 13.27 135.41 11.88 135.55 11.88 144.64"/>
          <polygon class="cls-1" points="8.56 144.92 9.92 144.8 9.92 135.74 8.56 135.88 8.56 144.92"/>
          <polygon class="cls-1" points="8.43 166.91 13.27 166.71 13.27 155.45 8.43 155.76 8.43 166.91"/>
          <polygon class="cls-1" points="8.43 188.89 13.27 188.89 13.27 177.64 8.43 177.74 8.43 188.89"/>
          <polygon class="cls-1" points="51.61 211.39 57.28 211.39 57.28 199.19 51.61 199.31 51.61 211.39"/>
          <polygon class="cls-1" points="40.16 211.39 45.61 211.39 45.61 199.44 40.16 199.56 40.16 211.39"/>
          <polygon class="cls-1" points="29.17 211.39 34.4 211.39 34.4 199.68 29.17 199.79 29.17 211.39"/>
          <polygon class="cls-1" points="18.6 211.39 23.62 211.39 23.62 199.91 18.6 200.02 18.6 211.39"/>
          <polygon class="cls-1" points="8.43 211.39 13.27 211.39 13.27 200.13 8.43 200.23 8.43 211.39"/>
        </g>
      </g>
      <g>
        <polygon class="cls-1" points="87.96 130.12 89.47 130 90.52 130.93 90.52 137.3 86.9 137.59 86.9 131.22 87.96 130.12"/>
        <polygon class="cls-1" points="94.64 129.58 96.15 129.46 97.21 130.38 97.21 136.75 93.59 137.05 93.59 130.68 94.64 129.58"/>
        <polygon class="cls-1" points="101.33 129.04 102.84 128.91 103.89 129.84 103.89 136.21 100.27 136.5 100.27 130.14 101.33 129.04"/>
      </g>
      <g>
        <polygon class="cls-1" points="81.29 154.62 83.87 154.37 85.69 155.9 85.69 166.66 79.51 167.05 79.51 156.48 81.29 154.62"/>
        <polygon class="cls-1" points="93.01 153.46 95.77 153.18 97.72 154.76 97.72 165.9 91.11 166.32 91.11 155.39 93.01 153.46"/>
        <polygon class="cls-1" points="81.29 175.9 83.87 175.81 85.69 177.46 85.69 188.22 79.51 188.22 79.51 177.65 81.29 175.9"/>
        <polygon class="cls-1" points="93.01 175.48 95.77 175.37 97.72 177.08 97.72 188.22 91.11 188.22 91.11 177.29 93.01 175.48"/>
        <polygon class="cls-1" points="105.57 152.21 107.05 152.06 107.05 165.32 103.53 165.54 103.53 154.21 105.57 152.21"/>
        <polygon class="cls-1" points="105.57 175.02 107.05 174.96 107.05 188.22 103.53 188.22 103.53 176.89 105.57 175.02"/>
        <polygon class="cls-1" points="133.14 196.76 130.57 196.67 128.74 198.32 128.74 209.08 134.92 209.08 134.92 198.51 133.14 196.76"/>
        <polygon class="cls-1" points="121.43 196.34 118.67 196.24 116.71 197.94 116.71 209.08 123.33 209.08 123.33 198.15 121.43 196.34"/>
        <polygon class="cls-1" points="108.86 195.88 107.39 195.82 107.39 209.08 110.91 209.08 110.91 197.75 108.86 195.88"/>
        <polygon class="cls-1" points="81.29 196.76 83.87 196.67 85.69 198.32 85.69 209.08 79.51 209.08 79.51 198.51 81.29 196.76"/>
        <polygon class="cls-1" points="93.01 196.34 95.77 196.24 97.72 197.94 97.72 209.08 91.11 209.08 91.11 198.15 93.01 196.34"/>
        <polygon class="cls-1" points="105.57 195.88 107.05 195.82 107.05 209.08 103.53 209.08 103.53 197.75 105.57 195.88"/>
      </g>
    </g>
  </g>
</svg>