<?xml version="1.0" encoding="UTF-8"?>
<svg id="Layer_2" data-name="Layer 2" xmlns="http://www.w3.org/2000/svg" viewBox="0 0 21.88 49.51">
  <defs>
    <style>
      .cls-1 {
        fill: #baa774;
      }
    </style>
  </defs>
  <g id="Layer_1-2" data-name="Layer 1">
    <g>
      <path class="cls-1" d="M11.37.32c1.25,4.73,2.26,9.92,2.98,14.77.17,1.23.54,2.46.81,3.69.59,2.56-.1,5.01-1.2,7.38-.61,1.23-1.36,2.46-2.58,3.69-.23.23-.61.24-.85,0-2.15-2.22-3.22-4.62-3.83-7.39-.62-2.5.5-4.95.85-7.38.26-1.85.9-5.55,1.28-7.38.52-2.46,1.03-4.92,1.7-7.38.1-.42.75-.42.85,0h0Z"/>
      <polygon class="cls-1" points="10.94 49.51 21.88 30.56 0 30.56 10.94 49.51 21.88 30.56 0 30.56 10.94 49.51"/>
    </g>
  </g>
</svg>