<?xml version="1.0" encoding="UTF-8"?>
<svg id="Layer_2" data-name="Layer 2" xmlns="http://www.w3.org/2000/svg" viewBox="0 0 173.57 129.66">
  <defs>
    <style>
      .cls-1 {
        fill: #baa774;
      }
    </style>
  </defs>
  <g id="Layer_1-2" data-name="Layer 1">
    <g id="MKHyt6">
      <g>
        <path class="cls-1" d="M0,62.49L36.79,23.88c3.66-3.3,10.15-3.11,14.83-2.68,6.76.61,3.72,7.65,4.6,12.34.79,4.22,4.76,9.09,8.67,10.91,2.74,1.27,10.34,2.98,12.41.37.4-.51,3.13-10.22,3.16-11.17.14-3.84-5.22-3.37-6.64-.78-1.02-.44-1.04-3.46-.71-4.41.19-.55,6.71-4.13,7.71-4.46,4.87-1.61,11.57-.79,13.79,4.49l2.08,15.91c1.49,3.32,9.3,1.32,11.95.03,3.72-1.81,7.99-6.72,8.7-10.88.8-4.72-2.08-11.73,4.6-12.33,10.31-.93,12.55.27,19.35,7.16l32.27,34.15h-8.2c-4.76,0-12.8-12.66-16.13-16.15l-1.6.55,20.11,25.39c-4.26.59-9.47.6-12.69-2.66-2.4-2.43-5.97-8.31-8.16-11.42-1.26-1.79-2.6-3.76-3.49-5.77-.62-.16-1.41.3-1.56.84-.47,1.75,18,26.53,20.09,30.11-4.08.3-9.16-.1-12.46-2.89l-12.94-22.78c-.66-.15-1.37.25-1.54.87-.53,1.95,17.52,31.08,19,35.64-4.05-1.91-9.54-.7-12.4-4.8l-13.01-28.01-1.54.87,12.13,28.76c-4-.93-8.27-1.08-10.82-4.79-1.62-2.54-7.25-21.65-8.49-22.2-.2-.09-1.33-.19-1.33.27l7.94,24.07c-13.19.07-11.15-13.77-14.82-22.75l-1.56,1.28,4.74,18.82c-10.3.44-9.33-9.26-11.37-16.4-1.21,2.31-3.48,5.94-2.79,8.59.86,3.29,7.07,9.82,8.79,13.45.73,1.53.87,3.93,1.65,5.09.21.32,5.2,5.14,5.58,5.14h13.49s0,5.29,0,5.29c-1.84-2.03-3.28-2.05-5.81-2.65l2.63,3.44-2.9,2.91c-.38-7.37-7.67-7.76-10.05-1.06l-2.9-2.91,2.6-3.1c-.06-.35-4.54-4.89-4.97-5.15-.84-.51-1.67.23-2.89-.21s-10.58-7.67-11.15-7.15l20.64,28.56c-3.4.05-8.15.42-10.86-2.1-1.8-1.68-5.95-13.18-6.87-13.23l-.57,2.14,7.19,18.22c-11.62,1.45-10.42-8.83-12.46-16.65-.15-.59-.01-2.03-1.03-1.59-1.12.48-.5,1.26-.46,1.99.38,7.45,4.69,16.92-3.71,21.25-7.59-4.92-4.13-11.97-3.54-19.3.07-.88.7-3.59-.25-3.94s-1,.85-1.15,1.47c-1.91,7.8-.77,18.29-12.34,16.78,1.44-5.56,6.14-12.89,7.19-18.22.2-1.04.48-1.41-.57-2.14-4.94,8.19-5.19,17.55-17.72,15.33l20.63-28.57c-.61-.57-9.76,6.56-11.13,7.12-1.04.42-2.15.13-3.14.56-.82.35-4.88,4.38-4.74,5.21l2.6,2.72-3.43,3.44c-.34-7.68-9.95-6.57-9.52.53l-2.9-2.91,2.64-2.91c-2.81-.46-3.92.31-5.82,2.11v-5.29s13.49,0,13.49,0c1.28-1.8,4.52-3.84,5.57-5.54.85-1.38.69-3.03,1.36-4.46,1.85-3.99,6.94-9.02,8.97-13.26,1.08-3.34-1.64-6-2.41-9.01-.66-.15-.66.55-.79,1.04-2.08,7.74-.15,14.52-10.84,15.89l4.66-19.44-1.22-1.19c-4.32,8.68-1.72,22.76-15.09,22.75l7.94-24.07c0-.47-1.08-.35-1.31-.26-1.28.53-6.9,19.55-8.51,22.18-2.55,3.71-6.82,3.85-10.82,4.79l12.14-29.06-1.55-.57-13.24,28.31c-.51,2.35-11.64,4.36-12.17,3.96,1.7-4.39,19.53-33.2,19.03-35.13-.14-.54-.94-1.01-1.56-.85-3.75,6.5-6.96,13.63-11.03,19.93-3.71,5.75-7.84,5.93-14.38,5.73l20.1-30.14-1.57-.82-11.43,16.89c-3.26,3.57-8.45,3.64-12.92,2.95l20.11-25.39-1.6-.55c-3.4,3.81-6.49,8.59-10.03,12.2-1.47,1.49-3.87,3.95-6.1,3.95H0Z"/>
        <polygon class="cls-1" points="110.16 10.02 114.83 12.22 109.78 13.79 109 18.57 106.02 14.4 101.07 15.39 104.17 11.35 101.61 6.4 106.56 8.45 110.06 4.82 110.16 10.02"/>
        <path class="cls-1" d="M87.31.05c.36,4.63,1.52,6.01,6.35,5.3l-3.65,3,1,4.93-4.4-2.56-4.59,3.08,1.62-5.45-3.74-3.01,5.2-.62c.67-1.19.76-2.64,1.14-3.9.23-.76-.33-.93,1.06-.78Z"/>
        <polygon class="cls-1" points="71.96 6.4 69.38 11.35 72.5 15.39 67.55 14.39 64.83 18.57 63.52 13.53 58.74 12.22 63.41 10.02 63.51 4.82 67.01 8.45 71.96 6.4"/>
      </g>
    </g>
  </g>
</svg>