<?xml version="1.0" encoding="UTF-8"?>
<svg id="Layer_2" data-name="Layer 2" xmlns="http://www.w3.org/2000/svg" viewBox="0 0 102.27 76.87">
  <defs>
    <style>
      .cls-1 {
        fill: #baa774;
        fill-rule: evenodd;
      }
    </style>
  </defs>
  <g id="Layer_1-2" data-name="Layer 1">
    <g>
      <path class="cls-1" d="M0,0c.29.1,14,5.56,15.82,7.47,1.82,1.92,2.37,4.42,3.25,5.75.84,1.36,2.11,4.22,2.6,4.42.45.19,3.93,1.33,5.36.58,1.43-.78,6.69-3.28,8.16-3.64l3.54-1.27c2.96-.52,5.65-.62,8.12-.39l-7.77,2.21-7.83,2.6c-.78.49-2.4.68-3.38,1.53-.94.88-1.62,1.43-1.72,1.92-.1.49-.94,2.89-3.05,3.44-2.11.58-5.65.88-6.43.68-.75-.19-2.86-1.62-2.66-1.62.91-.36,2.76-1.07,3.44-1.62.65-.58.59-1.53.55-2.01-1.33-2.21-4-6.63-4.97-8.25-.94-1.62-1.82-2.5-2.11-2.7-.29-.16-6.04-2.86-7.67-4.68C1.63,2.6-.09-.09,0,0Z"/>
      <path class="cls-1" d="M48.72,66.64c3.44.49,4.45,1.04,8.64,2.53,4.19,1.46,7.7,2.01,9.29,2.66,1.56.65,2.01.19,2.11,1.23.1,1.01.1.81-.16,1.27-.29.49-.58.58-.49.75.1.19-.26.19.39.49.65.26-.65.55,1.56.91,2.24.39,1.75.65,2.89-.1,1.1-.75.55-.65.91-1.46.39-.84.49-1.2.84-1.3.36-.1.45.1,1.01.1.58,0,5.2.07,8.55.36,3.35.26,3.8.55,6.3.55s1.04-.2,4.45.29c3.44.45,3.9.91,5.13.71,1.2-.16,2.01-.71,2.11-.55.1.19-9.65-1.4-12.25-1.95-2.6-.55-5.65-1.3-6.76-1.75-1.14-.45-5.85-.1-9.94-1.1-4.06-1.04-6.5-1.75-9.19-2.4-2.66-.65-3.25-.49-5.91-.65-2.7-.2-3.8-.58-5.49-.75-1.66-.19-3.22.07-4,.16Z"/>
    </g>
  </g>
</svg>