<?xml version="1.0" encoding="UTF-8"?>
<svg id="Layer_2" data-name="Layer 2" xmlns="http://www.w3.org/2000/svg" viewBox="0 0 142.07 84.21">
  <defs>
    <style>
      .cls-1 {
        fill: #baa774;
        fill-rule: evenodd;
      }
    </style>
  </defs>
  <g id="Layer_1-2" data-name="Layer 1">
    <g>
      <path class="cls-1" d="M49.62,30.76c-6.05,1.57-12,3.6-17.76,7.05-2.35,2.39-4.16,5.13-5.66,8.08-.89.93-2.06,1.32-3.7.93-2.74-1.32-5.13-2.6-7.33-3.45-3.49-.61-6.83-.68-10-.11-2.21.46-3.74,1.25-5.16,2.06,4.59-.39,9.29-.5,14.35.32,2.24.5,4.49,1.32,6.87,2.38l1.39.93,2.1,3.52c2.67.43,4.84-.04,6.41-1.64l-1.82-1.67c-.71-.85-.5-1.78.07-2.78,2.31-3.06,4.88-5.73,7.62-8.12,4.2-2.71,8.4-5.09,12.64-7.51Z"/>
      <path class="cls-1" d="M142.06,0c-.32.11-15.34,6.09-17.34,8.19-1.99,2.1-2.6,4.84-3.56,6.3-.93,1.49-2.31,4.63-2.85,4.84-.5.21-4.31,1.46-5.87.64-1.57-.85-7.33-3.6-8.93-3.99l-3.88-1.39c-3.24-.57-6.19-.68-8.9-.43l8.51,2.42,8.58,2.85c.85.53,2.63.75,3.7,1.67,1.03.96,1.78,1.57,1.89,2.1.11.53,1.03,3.17,3.35,3.77,2.31.64,6.19.96,7.05.75.82-.21,3.13-1.78,2.92-1.78-1-.39-3.03-1.17-3.77-1.78-.71-.64-.64-1.67-.61-2.21,1.46-2.42,4.38-7.26,5.45-9.04,1.03-1.78,1.99-2.74,2.31-2.95.32-.18,6.62-3.13,8.4-5.13,1.78-1.99,3.67-4.95,3.56-4.84Z"/>
      <path class="cls-1" d="M139.86,73.01c-3.77.53-4.88,1.14-9.47,2.78-4.59,1.6-8.44,2.21-10.18,2.92-1.71.71-2.21.21-2.31,1.35-.11,1.1-.11.89.18,1.39.32.53.64.64.53.82-.11.21.28.21-.43.53-.71.28.71.61-1.71,1-2.46.43-1.92.71-3.17-.11-1.21-.82-.61-.71-1-1.6-.43-.93-.53-1.32-.93-1.42-.39-.11-.5.11-1.1.11-.64,0-5.7.07-9.36.39-3.67.28-4.16.61-6.91.61s-1.14-.21-4.88.32c-3.77.5-4.27,1-5.62.78-1.32-.18-2.21-.78-2.31-.61-.11.21,10.57-1.53,13.42-2.14,2.85-.61,6.19-1.42,7.4-1.92,1.25-.5,6.41-.11,10.89-1.21,4.45-1.14,7.12-1.92,10.07-2.63,2.92-.71,3.56-.53,6.48-.71,2.95-.21,4.16-.64,6.02-.82,1.82-.21,3.52.07,4.38.18Z"/>
    </g>
  </g>
</svg>