<?xml version="1.0" encoding="UTF-8"?>
<svg id="Layer_2" data-name="Layer 2" xmlns="http://www.w3.org/2000/svg" viewBox="0 0 113.73 107.72">
  <defs>
    <style>
      .cls-1 {
        fill: #baa774;
      }

      .cls-2 {
        fill: #0c383b;
      }
    </style>
  </defs>
  <g id="Layer_1-2" data-name="Layer 1">
    <g>
      <g>
        <path class="cls-1" d="M18.52,71.7c-.62-.41-.8-1.22-.41-1.85l6.61-10.82,29.01.34-25.63,18.63-9.57-6.31Z"/>
        <path class="cls-2" d="M25.49,60.44l24.01.28-21.45,15.59-8.75-5.74,6.19-10.14M23.94,57.63l-7.02,11.49c-.78,1.27-.41,2.93.84,3.75l10.38,6.84,29.81-21.68-34.01-.4h0Z"/>
      </g>
      <g>
        <path class="cls-1" d="M28.52,37.91l2.32-11.29c.13-.63.69-1.09,1.33-1.09.08,0,.15,0,.23.02l12.36,2.1,5.98,26.35-22.22-16.08Z"/>
        <path class="cls-2" d="M32.2,26.92l11.41,1.94,4.95,21.83-18.5-13.39,2.13-10.38M32.18,24.13c-1.29,0-2.44.9-2.7,2.21l-2.5,12.18,25.95,18.78-7-30.87-13.28-2.26c-.16-.03-.31-.04-.47-.04h0Z"/>
      </g>
      <g>
        <path class="cls-1" d="M62.19,59.9l27.06.5,6.62,10.84c.39.63.2,1.45-.41,1.85l-9.52,6.28-23.74-19.47Z"/>
        <path class="cls-2" d="M66.18,61.37l22.28.42,6.23,10.15-8.66,5.71-19.84-16.27M58.2,58.43l27.65,22.67,10.38-6.84c1.24-.82,1.61-2.48.84-3.75l-7.02-11.49-31.84-.59h0Z"/>
      </g>
      <g>
        <path class="cls-1" d="M57.47,102.31c-.33,0-.65-.12-.9-.34l-10.38-9.13,9.91-25.67,10.97,25.57-8.61,9.14c-.26.28-.61.43-1,.43Z"/>
        <path class="cls-2" d="M56.16,70.87l9.26,21.59-7.94,8.47-9.65-8.48,8.33-21.57M56.03,63.48l-11.5,29.77,11.11,9.77c.52.46,1.17.69,1.82.69.74,0,1.47-.29,2.01-.87l9.23-9.81-12.69-29.56h0Z"/>
      </g>
      <g>
        <path class="cls-1" d="M68.43,29.05l12.44-2.12c.08-.01.16-.02.23-.02.64,0,1.21.46,1.33,1.09l2.29,11.15-23.47,12.33,7.17-22.44Z"/>
        <path class="cls-2" d="M81.07,28.32l2.07,10.09-19.53,10.26,5.88-18.39,11.58-1.97M81.1,25.52c-.15,0-.31.01-.47.04l-13.28,2.26-8.47,26.49,27.42-14.41-2.5-12.18c-.27-1.3-1.41-2.21-2.7-2.21h0Z"/>
      </g>
      <g>
        <path class="cls-1" d="M90.46,106.33s-.08,0-.11-.01c-13.12-2.51-22.51-7.93-27.9-16.12-7.15-10.86-5.37-23.57-4.27-28.53.06-.27.29-.45.57-.45.04,0,.08,0,.11.01,12.67,2.43,21.84,7.73,27.27,15.75,7.38,10.91,5.89,23.84,4.9,28.89-.05.27-.29.46-.57.46h0Z"/>
        <path class="cls-2" d="M59.38,62.75c11.88,2.42,20.49,7.46,25.59,15.01,6.72,9.94,5.77,21.69,4.84,27.03-12.32-2.5-21.13-7.66-26.19-15.35-6.51-9.89-5.28-21.45-4.24-26.68M58.75,59.82c-.91,0-1.73.63-1.93,1.55-1.75,7.9-5.95,38.83,33.27,46.32.13.02.25.04.38.04.93,0,1.75-.65,1.94-1.59,1.56-8,4.98-38.95-33.27-46.28-.13-.02-.25-.04-.38-.04h0Z"/>
      </g>
      <g>
        <path class="cls-1" d="M80.59,64.87c-6.4,0-13.36-1.79-20.71-5.31-.29-.14-.41-.47-.28-.76,2.32-5.23,11.44-22.28,31.18-22.28,6.5,0,13.64,1.84,21.22,5.48.29.14.42.49.28.77-2.46,5.18-12.04,22.09-31.69,22.09Z"/>
        <path class="cls-2" d="M90.78,35.13v2.79h0c6.08,0,12.76,1.68,19.88,5-2.86,5.69-12.08,20.56-30.07,20.56-5.98,0-12.49-1.62-19.38-4.83,2.69-5.71,11.5-20.73,29.57-20.73v-2.79M90.78,35.13c-20.51,0-29.93,17.44-32.45,23.11-.44.98-.01,2.12.96,2.59,8.11,3.89,15.19,5.44,21.31,5.44,20.39,0,30.26-17.23,32.95-22.89.47-.98.05-2.16-.93-2.63-8.37-4.02-15.61-5.62-21.83-5.62h0Z"/>
      </g>
      <g>
        <path class="cls-1" d="M56.69,56.76c-.09,0-.27-.02-.42-.18-8.89-9.34-13.27-18.99-13.01-28.67.35-13.17,9.08-22.81,12.82-26.35.14-.13.29-.16.39-.16.09,0,.27.02.43.18,9.22,9.67,13.7,19.54,13.32,29.34-.5,13-9.35,22.29-13.13,25.69-.14.12-.29.15-.39.15h0Z"/>
        <path class="cls-2" d="M56.44,3.14c8.57,9.2,12.73,18.52,12.37,27.73-.46,11.83-8.18,20.52-12.08,24.17-8.26-8.88-12.32-17.99-12.08-27.09.31-12,7.93-20.99,11.79-24.8M56.46,0c-.49,0-.97.18-1.35.54-5.92,5.6-26.71,28.78.15,57,.39.41.91.62,1.44.62.47,0,.94-.17,1.32-.51,6.01-5.41,27.43-28.12-.11-57.03-.39-.41-.91-.62-1.44-.62h0Z"/>
      </g>
      <g>
        <path class="cls-1" d="M33.14,64.17c-19.65,0-29.23-16.91-31.69-22.09-.14-.29-.01-.63.28-.77,7.58-3.64,14.72-5.48,21.22-5.48,19.74,0,28.85,17.05,31.18,22.28.13.29,0,.62-.28.76-7.35,3.52-14.31,5.31-20.71,5.31h0Z"/>
        <path class="cls-2" d="M22.95,37.22c18.07,0,26.88,15.01,29.57,20.73-6.89,3.21-13.41,4.83-19.38,4.83-17.99,0-27.21-14.87-30.07-20.56,7.11-3.32,13.8-5,19.88-5M22.95,34.43c-6.22,0-13.45,1.6-21.83,5.62-.98.47-1.4,1.64-.93,2.63,2.69,5.66,12.56,22.89,32.95,22.89,6.12,0,13.2-1.55,21.31-5.44.97-.46,1.39-1.61.96-2.59-2.52-5.67-11.95-23.11-32.45-23.11h0Z"/>
      </g>
      <g>
        <path class="cls-1" d="M22.94,106c-.29,0-.53-.22-.57-.51-1.66-13.26.6-23.86,6.72-31.51,8.13-10.15,20.77-12.38,25.83-12.86h0c.34,0,.59.22.62.51,1.6,12.79-.61,23.16-6.57,30.79-8.1,10.39-20.86,12.95-25.97,13.58h-.07Z"/>
        <path class="cls-2" d="M54.26,62.59c1.37,12.05-.78,21.79-6.38,28.97-7.38,9.46-18.85,12.18-24.22,12.94-1.42-12.49.77-22.46,6.53-29.65,7.4-9.24,18.77-11.64,24.08-12.26M54.98,59.72c-.06,0-.13,0-.19,0-8.05.77-38.77,6.32-33.8,45.93.13,1,.97,1.73,1.95,1.73.08,0,.16,0,.24-.01,8.09-.99,38.58-7.28,33.75-45.93-.12-1-.97-1.74-1.96-1.74h0Z"/>
      </g>
      <g>
        <path class="cls-1" d="M57,68.68c-4.72,0-8.56-3.84-8.56-8.56s3.84-8.56,8.56-8.56,8.56,3.84,8.56,8.56-3.84,8.56-8.56,8.56Z"/>
        <path class="cls-2" d="M57,52.96c3.95,0,7.16,3.21,7.16,7.16s-3.21,7.16-7.16,7.16-7.16-3.21-7.16-7.16,3.21-7.16,7.16-7.16M57,50.17c-5.5,0-9.95,4.46-9.95,9.95s4.46,9.95,9.95,9.95,9.95-4.46,9.95-9.95-4.46-9.95-9.95-9.95h0Z"/>
      </g>
    </g>
  </g>
</svg>