<?xml version="1.0" encoding="UTF-8"?>
<svg id="Layer_2" data-name="Layer 2" xmlns="http://www.w3.org/2000/svg" viewBox="0 0 420.8 80.28">
  <defs>
    <style>
      .cls-1 {
        fill: #baa87a;
      }
    </style>
  </defs>
  <g id="Layer_1-2" data-name="Layer 1">
    <g>
      <path class="cls-1" d="M208.71,32.01c-4.06,6.55-11.29,9.81-18.7,10.75-8.02,1.02-15.6.24-22.42-4.33,0,0-5.02,7.86-4.68,8.1,1.71,1.15,3.5,2.05,5.34,2.77,0,.01.01.03.02.04,2.01,1.91,2.68,4.48,2.7,7.2,0,1.43-.16,2.88-.44,4.28-.2,1.02-.74,2.11-1.13,3.18-.46.5-.91,1-1.44,1.46-.98.88-2.05,1.66-3.16,2.36-2.53,1.57-5.27,2.57-8.17,3.11-4.38.74-12.2.86-20.95-4.68.24.34,7.82,11.04,16.68,11.73,0,0,0,0,0,.01-.02.06-.15.45-.45.77,0,0,0,0-.01.01-.12.14-.28.26-.47.36l.13-.03c.09-.02.19-.03.28-.05,9.08-1.67,14.27-7.75,18.66-15.41,1.9-3.31,4.37-8.02,5.13-12.56,3.98.45,8.08.18,12.16-.6,7.91-1.52,13.61-5.88,17.79-12.64,1.16-1.87,2.28-3.78,3.31-5.73.64-1.2.77-1.62-.17-.1"/>
      <path class="cls-1" d="M196.37,25.27c-1.41-1.13-2.79-2.31-4.18-3.46-.04-.03-2.29,3.68-2.46,3.98-.03.06-.13.22-.26.43-1.21.67-2.4-.15-3.41-.95-1.41-1.13-2.79-2.31-4.18-3.46-.04-.03-2.29,3.68-2.46,3.98-.19.33-2.45,3.92-2.22,4.12,1.39,1.15,2.77,2.32,4.18,3.46,1.08.87,2.39,1.76,3.69.77.29-.22.61-.88.77-1.14.58-.94,1.14-1.89,1.69-2.84.03-.05.06-.1.09-.16,1.35,1.12,2.7,2.26,4.07,3.37,1.08.87,2.39,1.76,3.69.77.29-.22.61-.88.77-1.14.58-.94,1.14-1.89,1.69-2.84.55-.95,1.1-1.91,1.62-2.88.15-.28.38-1.07.6-1.24-1.31.99-2.61.11-3.69-.77"/>
      <path class="cls-1" d="M238.99,25.27c-1.41-1.13-2.79-2.31-4.18-3.46-.04-.03-2.29,3.68-2.46,3.98-.03.06-.13.22-.26.43-1.21.67-2.4-.15-3.41-.95-1.41-1.13-2.79-2.31-4.18-3.46-.04-.03-2.29,3.68-2.46,3.98-.19.33-2.45,3.92-2.22,4.12,1.39,1.15,2.77,2.32,4.18,3.46,1.08.87,2.39,1.76,3.69.77.29-.22.61-.88.77-1.14.58-.94,1.14-1.89,1.69-2.84.03-.05.06-.1.09-.16,1.35,1.12,2.7,2.26,4.07,3.37,1.08.87,2.39,1.76,3.69.77.29-.22.61-.88.77-1.14.58-.94,1.14-1.89,1.69-2.84.55-.95,1.1-1.91,1.62-2.88.15-.28.38-1.07.6-1.24-1.31.99-2.61.11-3.69-.77"/>
      <path class="cls-1" d="M320.51,32.98c1.39,1.15,2.77,2.32,4.18,3.46,1.08.87,2.39,1.76,3.69.77.29-.22.61-.88.77-1.14.58-.94,1.14-1.89,1.69-2.84.55-.95,1.1-1.91,1.62-2.88.15-.28.38-1.07.6-1.24-1.31.99-2.61.11-3.69-.77-1.41-1.13-2.79-2.31-4.18-3.46-.04-.03-2.29,3.68-2.46,3.98-.19.33-2.45,3.92-2.22,4.12"/>
      <path class="cls-1" d="M402.96,49.18c1.39,1.15,2.77,2.32,4.18,3.46,1.08.87,2.39,1.76,3.69.77.29-.22.61-.88.77-1.14.58-.94,1.14-1.89,1.69-2.84.55-.95,1.1-1.91,1.62-2.88.15-.28.38-1.07.6-1.24-1.31.99-2.61.11-3.69-.77-1.41-1.13-2.79-2.31-4.18-3.46-.04-.03-2.29,3.68-2.46,3.98-.19.33-2.45,3.92-2.22,4.12"/>
      <path class="cls-1" d="M390.37,70.93c-4.9.39-9.92.26-14.75-.74-2.63-.54-5.35-1.33-7.82-2.54.98-.57,1.96-1.16,2.92-1.75,1.51.6,2.97,1.06,4.15,1.38,3.14.86,6.71,1.1,9.46-.94,1.32-.98,2.1-2.43,2.96-3.8.9-1.42,1.91-2.85,2.8-4.33,1.24-1.85,2.44-3.74,3.42-5.69.85-1.69.38-3.61-.29-5.29-1.38-3.49-4.04-6.34-7.09-8.45-2.66-1.84-5.5-3.29-7.92-5.49-2.18-1.97-4.42-4.73-3.46-7.85-.1.31-.63.95-.76,1.16-.6.95-1.2,1.89-1.79,2.84-.77,1.24-2.04,2.64-2.47,4.05-.72,2.33.22,4.47,1.82,6.34-.89.83-1.69,1.8-2.43,2.65-1,1.16-1.74,2.7-2.55,4-.02.04-.04.08-.07.12-.11.18-.22.37-.32.56-.18.24-.36.49-.44.6-.6.94-1.19,1.89-1.79,2.83-.78,1.24-2.04,2.64-2.47,4.05-1.15,3.7,1.08,6.57,4.22,8.69-9.3,4.33-19.3,7.13-29.53,8.25-7.28.79-14.66.73-21.92-.24-5.55-.74-11.73-1.94-16.49-5.08-1.71-1.13-3.27-2.68-3.74-4.73-.17-.72-.18-1.46-.09-2.18,1.85,1.1,3.78,2.06,5.67,2.92,1.31.6,2.63,1.14,3.98,1.62,0,.01-.02.02-.02.03.03,0,.05,0,.08-.01,2.26.8,4.56,1.44,6.94,1.94,9.37,1.95,19.7,2.61,29.01.07,4.75-1.3,9.22-3.62,12.17-7.67.76-1.05,1.45-2.17,2.12-3.29.37-.57.73-1.16,1.09-1.73.59-.95,1.18-1.9,1.77-2.85.13-.22.75-.98.71-1.2-1.2-5.33-6.58-11.34-12.55-9.62h-.03c-6.7,2.02-12.72,5.59-18.92,8.75-5.61,2.85-11.02,6.63-17.37,7.57-.85-.31-1.69-.65-2.53-1.01-5.75-2.51-12.07-5.74-15.52-11.2,0,0-.66,1.12-1.72,2.79-.41.59-.75,1.07-.83,1.2-.39.62-.76,1.24-1.15,1.86-2.3,3.45-5.3,7.64-7.9,10.18-.27.25-.54.51-.81.75-.03.02-.05.04-.08.07-1.27,1.14-2.61,2.2-4.04,3.14-3.01,1.98-6.42,3.42-10.03,3.81-3.39.36-7.03-.14-10.13-1.52-4.67-2.08-7.56-6.33-8.81-11.17-.43-1.66-.66-3.34-.78-5.03,0,0,0,0,.02,0,.32-.3,5.44-5.08,6.6-10.66,0,0-3.77,6.7-6.75,7.67-.09-2.94-.49-5.81-.41-8.76,0,.16-.76,1.15-.76,1.15-.6.95-1.2,1.89-1.79,2.84-.59.95-1.18,1.9-1.77,2.85-.18.28-.7.87-.71,1.2-.02.85,0,1.69.04,2.52-2.93.42-5.97.2-8.91.25-4.02.08-7.77.89-11.12,3.18-3.77,2.58-6.01,6.35-8.37,10.15-.02.04-.05.08-.07.12-.03.05-.06.1-.09.15-.32.51-.65,1.01-.94,1.53h0c-.05.06-.25.38-.25.42-.32.51-.65,1.02-.97,1.53-.59.95-1.18,1.9-1.76,2.86-.14.22-.5,1.11-.71,1.19,8.5-3.48,18.93-2.15,26.03,3.76-.22-.19,3.6-5.31,4.73-7.29.22-.34.48-.74.48-.74.6-.93,1.19-1.88,1.78-2.82.36-.58.71-1.16,1.07-1.74.07.37.14.73.23,1.1,1.24,5.37,4.41,10.04,9.68,12.09,3.6,1.4,7.29,1.62,10.84.93h0s6.01-.76,13.01-6.25c4.81-3.77,10.27-11.35,13.22-15.73,1.78,2.25,4.07,4.09,6.55,5.64-.06.09-.12.19-.17.29-1.03,1.61-2.05,3.23-2.94,4.91-1.09,2.06-1.67,4.44-.65,6.65,1.98,4.32,8.07,6.08,12.2,7.18,14.94,3.99,31.64,2.73,46.34-1.66,3.48-1.04,6.9-2.29,10.22-3.72,0,.03,0,.05,0,.06,3.34,3.18,7.99,4.76,12.43,5.69,4.82,1,9.85,1.12,14.75.74,10.89-.85,21.45-4.61,30.43-10.83.25-.18.66-1,.76-1.16.6-.94,1.19-1.89,1.79-2.84.59-.95,1.18-1.9,1.76-2.85.18-.3.44-1.01.71-1.2-8.98,6.22-19.54,9.98-30.43,10.83M320.92,56.32c6.18-3.14,12.18-6.71,18.86-8.72.02,0,.04-.01.06-.02,5.13-1.47,9.86,2.76,11.85,7.36-5.84,3.65-13.71,4.45-20.25,4.46-4.61.01-9.38-.34-14.04-1.19,1.18-.65,2.35-1.29,3.53-1.89M238.86,58.75c-.6.93-1.19,1.87-1.78,2.82-.59.95-1.18,1.9-1.77,2.86-.01.02-.05.08-.1.16-6.92-4.93-16.38-5.94-24.28-2.87.37-.47.76-.96,1.05-1.25.67-.68,1.4-1.32,2.16-1.9,1.61-1.22,3.41-2.19,5.33-2.82,4.44-1.44,9.14-.68,13.71-.99,1.98-.14,3.98-.57,5.84-1.34.02.37.03.74.05,1.12.03,1.21.08,2.41.18,3.61-.2.3-.4.6-.4.61M379.24,55.21c.94-2.46,1.77-5.46,1.84-8.36,1.83,1.27,3.51,2.72,4.89,4.52,1.43,1.87,3.05,4.63,2.98,7.18-3.31,2.17-7.87,1.23-11.62-.14.71-1.02,1.49-2.09,1.91-3.21M366.21,48.16c.53-.53,1.09-1.02,1.69-1.39,1.84-1.13,4.23-1.02,5.71.59,2.55,2.77,2.8,6.7,2.15,10.45-3.95-1.63-9.8-4.8-9.55-9.65"/>
      <path class="cls-1" d="M289.56,16.11c-.32-1.04-1.27-1.68-2.35-1.35-1.87.57-2.56,3.47-3.03,5.08-.54,1.85-.1,3.15.53,4.93.36,1.02.67,1.97.46,3.05-.23,1.2-.97,2.28-1.68,3.26.19-5.8-2.86-11.19-8.12-13.78-.05-.03-.68,1.32-1.07,2.39-.44,1.02-.91,2.31-.71,2.41,1.95.95,3.27,2.81,3.45,4.98.02.19.6-1.09.65-1.21.18-.46.51-1.1.65-1.68,2.63,2.87,4.02,6.75,3.77,10.82,0,.09.19-.28.37-.63,1.09-1.56,1.91-3.29,2.59-5.07.7-1.8,1.65-4.02,1.55-6-.08-1.51-.82-3.1-1.28-4.57.39-.25.76-.45,1.3-.39.99.11,1.95,1.31,1.65,2.33-.07.25-.49,1.2-.03.73.49-.49.78-1.84.97-2.49.27-.89.61-1.87.33-2.8"/>
      <path class="cls-1" d="M148.7,41.66c-1.18-2.63-3.44-4.86-5.87-6.38-2.09-1.31-6.02-3.38-4.64-6.46-.09.13-1.48,2.22-1.78,2.73-.14.23-.28.46-.41.69-.35.52-.87,1.37-.92,1.44-1.1,1.82-2.18,3.67-3.15,5.56-2.09,4.07-6.73,14,.48,15.89,1.92.5,13.21-.48,11.42,3.91-.21.52.45-.5.33-.35.48-.59.89-1.39,1.28-2.08.02,1.04-.02,2.09-.11,3.12-.07.77-.18,1.54-.35,2.29-.05.22-.19.59-.35,1-.57.74-1.4,1.8-2.11,2.44-1.09.97-2.28,1.84-3.54,2.59-2.49,1.48-5.2,2.42-8.04,2.92-4.41.71-12.11.73-20.71-4.72.24.33,7.82,11.04,16.68,11.73,0,0,0,.02-.02.04-.04.09-.15.34-.33.58-.01.02-.03.04-.04.07-.14.18-.35.38-.55.46l.14-.02c4.8-.83,9.24-2.99,12.69-6.45,2.17-2.17,3.89-4.77,5.44-7.47.43-.76.86-1.52,1.28-2.29.3-.61.58-1.19.84-1.65.4-.72.79-1.44,1.14-2.18,2.65-5.47,3.85-11.48,1.2-17.41M133.58,39.34c.47,1.1,1.46,2.05,2.53,2.81,2.09,1.49,4.21,2.61,5.97,4.57.21.23.4.47.59.72-1.4-.06-2.68-.04-3.41-.1-5.39-.45-6.36-4.06-5.68-8"/>
      <path class="cls-1" d="M65.68,48.75c.15-.2.3-.39.44-.59,0,0,0,0,.01-.02,7.61-10.64-1.18-18.27-1.18-18.27l-1.73,5.77c.73.8,1.55,1.54,2.04,2.21,2.32,3.21,2.25,7.41.43,10.89"/>
      <path class="cls-1" d="M102.32,32.35c.05-.05.1-.1.15-.15-.03.03-.08.08-.15.15"/>
      <path class="cls-1" d="M115.2,46.96c-3.66-.67-7.57-.54-11.27-.73-1.79-.09-7.68.13-7.38-2.79,0,0,0-.12.05-.32h0s.01-.04.02-.05c.02-.08.05-.17.07-.25,0,0,0-.02,0-.02.04-.1.09-.24.14-.37,0,0,0,0,0,0,.02-.04.04-.09.07-.14h0c.25-.54.67-1.2,1.39-1.92,0,0,.01-.01.02-.02.07-.07.15-.14.22-.2.2-.18.4-.36.6-.53,1.56-1.31,3.35-2.36,5.29-2.97,2.28-.72,4.97-.97,6.98.56,2.03,1.54,2.74,4.49,1.86,6.84,0,0,2.98-4.44,4.12-6.76,0,0,0-.02.02-.03.03-.06.06-.12.09-.18,0-.01,0-.02.01-.03.13-.26.24-.52.34-.77,1.2-3.22-.14-7.17-3.7-8.11-3.35-.89-7.18.9-9.78,2.9-.66.52-1.29,1.07-1.86,1.66h0s-.01.01-.04.05c-.05.05-.1.1-.15.15-.13.13-.3.33-.53.58-.08.08-.16.18-.24.28-.02.02-.03.03-.05.05-2.15,2.48-7.18,8.89-9.36,16.73-1.09,3.37,3.2,3.58,5.61,3.7,3.58.19,16.36-.7,18.22,4.26-3.68,2.76-8,4.66-12.34,6.14-8.41,2.88-17.3,4.29-26.14,5.11-11.75,1.1-23.6,1.37-35.27-.58-14.12-2.36-27.62-7.36-40.34-13.76-.58-.29-1.3-.12-1.67.42-.36.53-.28,1.24.2,1.66l12.64,11.37c2.2,1.98,4.83,3.45,7.68,4.36,5.47,1.72,11.05,3.1,16.73,4.05,12.61,2.11,25.53,1.69,38.2.28,9.05-1,18.24-2.65,26.69-6.12,4.08-1.67,8.18-3.8,11.31-6.92,1.95-1.94,3.61-4.4,4.98-6.91.95-1.52,1.77-3.1,2.1-4.67.73-3.45-2.68-5.46-5.55-5.99"/>
      <path class="cls-1" d="M151.83,79.05h0s-.28.06-.28.06c.09-.02.19-.03.28-.06"/>
      <path class="cls-1" d="M415.5,23.7c-4.9,3.16-9.91,5.92-15.44,7.68-1.82.64-3.69,1.05-5.64,1.63,7.89,1.5,16.82-2.54,21.08-9.31"/>
      <path class="cls-1" d="M335.36,8.89c-4.9,3.16-9.91,5.92-15.44,7.68-1.82.64-3.69,1.05-5.64,1.63,7.89,1.5,16.82-2.54,21.08-9.31"/>
      <path class="cls-1" d="M146.22,8.89c-4.9,3.16-9.91,5.92-15.44,7.68-1.82.64-3.69,1.05-5.64,1.63,7.89,1.5,16.82-2.54,21.08-9.31"/>
      <path class="cls-1" d="M196.72,8.13c-.05-.46-.55-.86-1.12-1.2.04-.12.08-.2.08-.22.6-1.77,1.07-3.75.26-5.54-.32-.71-1.04-1.41-1.88-1.09-.63.24-1.22.91-1.53,1.48-.18.31-.33.65-.46,1-.14.25-.31.58-.35.65-.24.58-.5,1.2-.59,1.82-.21,1.44-.24,2.76,1.11,3.64.48.31,1.01.58,1.51.85-5.34,5.14-9.85,5.65-18.18,8.28,12.36-1,17.1-2.59,18.56-8.07.05.03.1.05.15.09.36.21,1.26.61,1.31,1.09.02.16.5-.86.53-.96.19-.47.66-1.29.59-1.82M195.29,6.76c-.54-.28-1.1-.51-1.4-.68-.61-.34-1.21-.68-1.53-1.32-.19-.37-.24-.79-.24-1.2.66-.65,1.64-.9,2.36-.09.64.72.95,2.19.82,3.29"/>
      <path class="cls-1" d="M190.62,72.31c1.14-2.68,2.39-5.69,1.29-8.6-.46-1.22-1.32-2.2-2.49-2.78-1.28-.64-2.23-.21-3.01.93-.89,1.28-1.11,3.02-1.99,4.3.74-1.07,1.67-1.56,2.9-.98,1.13.53,2,1.44,2.5,2.58,1.26,2.9.03,5.99-1.12,8.7.44-1.04,1.37-2.82,1.93-4.14"/>
      <path class="cls-1" d="M247.6,6.93c.04-.12.07-.21.08-.22.61-1.77,1.08-3.75.26-5.54-.33-.7-1.05-1.4-1.88-1.09-.64.24-1.22.91-1.54,1.48-.18.31-.33.65-.46.99-.14.25-.31.58-.34.66-.24.58-.5,1.19-.59,1.81-.22,1.44-.24,2.77,1.11,3.64.49.32,1.01.58,1.52.85-4.34,4.18-8.13,5.3-13.87,6.98-.01,0-.02,0-.03,0h-.02c.61-.25,1.22-.52,1.81-.83,1.84-.96,4.31-2.28,4.63-4.6.34-2.46-2.31-3.09-4.15-3.22-1.92-.14-3.94.13-5.91.75-1.23.39-2.44.87-3.63,1.4-1.26.56-2.51,1.19-3.72,1.92-.21.12.27-.07.19-.04.35-.12.71-.29,1.05-.44.35-.15.72-.3,1.08-.46,1.71-.8,2.85-1.15,3.46-1.3.23-.05.46-.1.69-.13,1.66-.25,3.37-.28,4.9.08,1.49.35,2.97,1.46,2.47,3.36-.47,1.79-2.12,2.91-3.66,3.74-1.08.32-2.23.66-3.46,1.05,12.35-1,17.1-2.59,18.56-8.06.05.03.1.05.15.08.36.21,1.25.61,1.31,1.09.02.16.49-.86.53-.96.19-.47.66-1.28.59-1.82-.05-.47-.54-.86-1.12-1.2M247.29,6.76c-.54-.29-1.09-.51-1.4-.68-.6-.34-1.21-.68-1.53-1.33-.18-.37-.24-.78-.24-1.2.67-.66,1.64-.9,2.36-.09.64.73.95,2.19.81,3.3"/>
    </g>
  </g>
</svg>